<svg width="200" height="285" viewBox="0 0 200 285" fill="none" xmlns="http://www.w3.org/2000/svg">
<g opacity="0.988514">
<path fill-rule="evenodd" clip-rule="evenodd" d="M67.17 220H132.83L153.83 185H46.17L67.17 220ZM127.17 210H72.83L63.83 195H136.17L127.17 210Z" fill="#D9D9D9"/>
<path fill-rule="evenodd" clip-rule="evenodd" d="M124.745 146.525L110.065 190H135.5L165.105 135.135L165.16 134.905L165 135C152.041 140.296 138.543 144.161 124.745 146.525Z" fill="#D9D9D9"/>
<path fill-rule="evenodd" clip-rule="evenodd" d="M127.725 73.3599C132.5 94.5393 132.5 116.516 127.725 137.695L124.725 146.525C138.53 144.162 152.035 140.297 165 135L165.16 134.905C171.618 112.423 171.618 88.5768 165.16 66.0949L164.47 64.7949C150.772 59.2237 136.467 55.2799 121.85 53.0449L127.725 73.3599Z" fill="#F0F0F0"/>
<path fill-rule="evenodd" clip-rule="evenodd" d="M75.255 146.525C61.4569 144.161 47.9587 140.296 35 135H34.96L35 135.16L64.605 190H89.935L75.255 146.525Z" fill="#D9D9D9"/>
<path fill-rule="evenodd" clip-rule="evenodd" d="M121.835 53.045L106.545 0.33C104.37 0.19 102.21 0 100 0C97.79 0 95.63 0.19 93.455 0.33L78.165 53.045C92.6444 50.92 107.356 50.92 121.835 53.045Z" fill="#63189A"/>
<path fill-rule="evenodd" clip-rule="evenodd" d="M164.455 64.7951L133.15 5.74508C124.571 2.73383 115.619 0.911953 106.545 0.330078L121.835 53.0451C136.452 55.2801 150.757 59.2238 164.455 64.7951Z" fill="#D9D9D9"/>
<path fill-rule="evenodd" clip-rule="evenodd" d="M165 65.0001L198.795 85.2801C193.337 48.6545 168.076 18.0489 133.15 5.74512L164.455 64.7951C164.635 64.8651 164.815 64.9251 165 65.0001Z" fill="#63189A"/>
<path fill-rule="evenodd" clip-rule="evenodd" d="M75.255 146.525L72.255 137.695C67.48 116.516 67.48 94.5393 72.255 73.3599L78.145 53.0449C63.57 55.2712 49.3056 59.198 35.645 64.7449L34.93 66.0949C28.4575 88.5987 28.4575 112.471 34.93 134.975L35 135C47.9587 140.296 61.4569 144.161 75.255 146.525Z" fill="#F0F0F0"/>
<path fill-rule="evenodd" clip-rule="evenodd" d="M75.255 146.525L89.935 190H110.065L124.745 146.525C108.361 149.25 91.6394 149.25 75.255 146.525Z" fill="#63189A"/>
<path fill-rule="evenodd" clip-rule="evenodd" d="M72.275 137.695L75.275 146.525C91.6625 149.251 108.387 149.251 124.775 146.525L127.775 137.695C132.55 116.516 132.55 94.5393 127.775 73.3599L121.885 53.0449C107.406 50.9199 92.6944 50.9199 78.215 53.0449L72.325 73.3599C67.5337 94.5355 67.5162 116.512 72.275 137.695Z" fill="#8422CC"/>
<path fill-rule="evenodd" clip-rule="evenodd" d="M165.105 135.135L135.5 190H145C174.389 175.478 194.577 147.229 198.795 114.72L165.16 134.905L165.105 135.135Z" fill="#63189A"/>
<path fill-rule="evenodd" clip-rule="evenodd" d="M198.795 85.2799L165 64.9999C164.815 64.9249 164.635 64.8649 164.455 64.7949L165.145 66.0949C171.603 88.5768 171.603 112.423 165.145 134.905L198.78 114.72C199.549 109.85 199.958 104.93 200 99.9999C199.962 95.0699 199.559 90.1499 198.795 85.2799Z" fill="#8422CC"/>
<path fill-rule="evenodd" clip-rule="evenodd" d="M78.165 53.0451L93.455 0.330078C84.4338 0.908828 75.5331 2.7157 67 5.70008L35.675 64.7451C49.3325 59.1988 63.5931 55.272 78.165 53.0451Z" fill="#D9D9D9"/>
<path fill-rule="evenodd" clip-rule="evenodd" d="M35.675 64.7449L67 5.69995C32.0019 17.965 6.67313 48.6006 1.205 85.28L35 65C35.225 64.91 35.45 64.8349 35.675 64.7449Z" fill="#63189A"/>
<path fill-rule="evenodd" clip-rule="evenodd" d="M35 135.135L34.96 135L1.205 114.745C5.43125 147.244 25.6169 175.483 55 190H64.605L35 135.135Z" fill="#63189A"/>
<path fill-rule="evenodd" clip-rule="evenodd" d="M34.96 66.0951L35.675 64.7451C35.45 64.8351 35.225 64.9101 35 65.0001L1.205 85.2801C0.440625 90.1501 0.038125 95.0707 0 100C0.038125 104.929 0.440625 109.85 1.205 114.72L34.96 135C28.4825 112.488 28.4825 88.607 34.96 66.0951Z" fill="#8422CC"/>
<path fill-rule="evenodd" clip-rule="evenodd" d="M85 255H115C117 255 118.807 253.808 119.595 251.97L134.595 216.97C134.862 216.347 134.999 215.678 134.999 215.001C135 212.239 132.761 210 130 210H70C69.3231 210 68.6531 210.137 68.0306 210.404C65.4925 211.492 64.3169 214.432 65.405 216.97L80.405 251.97C81.1931 253.808 83 255 85 255ZM111.705 245H88.295L77.585 220H122.415L111.705 245Z" fill="#D9D9D9"/>
<path fill-rule="evenodd" clip-rule="evenodd" d="M81.705 255H118.295L137.585 210H62.415L81.705 255ZM111.705 245H88.295L77.585 220H122.415L111.705 245Z" fill="#D9D9D9"/>
<path fill-rule="evenodd" clip-rule="evenodd" d="M95 210H105V255H95V210Z" fill="#D9D9D9"/>
<path fill-rule="evenodd" clip-rule="evenodd" d="M110 285H90C84.4769 285 80 280.523 80 275V250C80 247.239 82.2387 245 85 245H115C117.761 245 120 247.239 120 250V275C120 280.523 115.523 285 110 285Z" fill="#804D35"/>
</g>
</svg>
