<svg width="320" height="456" viewBox="0 0 320 456" fill="none" xmlns="http://www.w3.org/2000/svg">
<g opacity="0.988514">
<path fill-rule="evenodd" clip-rule="evenodd" d="M107.472 352H212.528L246.128 296H73.8719L107.472 352ZM203.472 336H116.528L102.128 312H217.872L203.472 336Z" fill="#D9D9D9"/>
<path fill-rule="evenodd" clip-rule="evenodd" d="M199.592 234.44L176.104 304H216.8L264.168 216.216L264.256 215.848L264 216C243.266 224.474 221.669 230.657 199.592 234.44Z" fill="#D9D9D9"/>
<path fill-rule="evenodd" clip-rule="evenodd" d="M204.36 117.376C212 151.263 212 186.425 204.36 220.312L199.56 234.44C221.648 230.66 243.256 224.476 264 216L264.256 215.848C274.588 179.877 274.588 141.723 264.256 105.752L263.152 103.672C241.235 94.7581 218.348 88.4481 194.96 84.8721L204.36 117.376Z" fill="#F0F0F0"/>
<path fill-rule="evenodd" clip-rule="evenodd" d="M120.408 234.44C98.331 230.657 76.734 224.474 56 216H55.936L56 216.256L103.368 304H143.896L120.408 234.44Z" fill="#D9D9D9"/>
<path fill-rule="evenodd" clip-rule="evenodd" d="M194.936 84.872L170.472 0.528C166.992 0.304 163.536 0 160 0C156.464 0 153.008 0.304 149.528 0.528L125.064 84.872C148.231 81.472 171.769 81.472 194.936 84.872Z" fill="#D85021"/>
<path fill-rule="evenodd" clip-rule="evenodd" d="M263.128 103.672L213.04 9.19208C199.313 4.37408 184.99 1.45908 170.472 0.528076L194.936 84.8721C218.324 88.4481 241.211 94.7581 263.128 103.672Z" fill="#D9D9D9"/>
<path fill-rule="evenodd" clip-rule="evenodd" d="M264 104L318.072 136.448C309.339 77.8469 268.922 28.8779 213.04 9.19189L263.128 103.672C263.416 103.784 263.704 103.88 264 104Z" fill="#D85021"/>
<path fill-rule="evenodd" clip-rule="evenodd" d="M120.408 234.44L115.608 220.312C107.968 186.425 107.968 151.263 115.608 117.376L125.032 84.8721C101.712 88.4341 78.889 94.7171 57.032 103.592L55.888 105.752C45.532 141.758 45.532 179.954 55.888 215.96L56 216C76.734 224.474 98.331 230.657 120.408 234.44Z" fill="#F0F0F0"/>
<path fill-rule="evenodd" clip-rule="evenodd" d="M120.408 234.44L143.896 304H176.104L199.592 234.44C173.377 238.8 146.623 238.8 120.408 234.44Z" fill="#D85021"/>
<path fill-rule="evenodd" clip-rule="evenodd" d="M115.64 220.312L120.44 234.44C146.66 238.802 173.42 238.802 199.64 234.44L204.44 220.312C212.08 186.425 212.08 151.263 204.44 117.376L195.016 84.872C171.849 81.472 148.311 81.472 125.144 84.872L115.72 117.376C108.054 151.257 108.026 186.419 115.64 220.312Z" fill="#F26B32"/>
<path fill-rule="evenodd" clip-rule="evenodd" d="M264.168 216.216L216.8 304H232C279.023 280.765 311.323 235.566 318.072 183.552L264.256 215.848L264.168 216.216Z" fill="#D85021"/>
<path fill-rule="evenodd" clip-rule="evenodd" d="M318.072 136.448L264 104C263.704 103.88 263.416 103.784 263.128 103.672L264.232 105.752C274.564 141.723 274.564 179.877 264.232 215.848L318.048 183.552C319.279 175.76 319.932 167.888 320 160C319.939 152.112 319.295 144.24 318.072 136.448Z" fill="#F26B32"/>
<path fill-rule="evenodd" clip-rule="evenodd" d="M125.064 84.8721L149.528 0.528076C135.094 1.45408 120.853 4.34508 107.2 9.12008L57.08 103.592C78.932 94.7181 101.749 88.4351 125.064 84.8721Z" fill="#D9D9D9"/>
<path fill-rule="evenodd" clip-rule="evenodd" d="M57.08 103.592L107.2 9.12012C51.203 28.7441 10.677 77.7611 1.92798 136.448L56 104C56.36 103.856 56.72 103.736 57.08 103.592Z" fill="#D85021"/>
<path fill-rule="evenodd" clip-rule="evenodd" d="M56 216.216L55.936 216L1.92798 183.592C8.68998 235.591 40.987 280.773 88 304H103.368L56 216.216Z" fill="#D85021"/>
<path fill-rule="evenodd" clip-rule="evenodd" d="M55.936 105.752L57.08 103.592C56.72 103.736 56.36 103.856 56 104L1.928 136.448C0.705 144.24 0.061 152.113 0 160C0.061 167.887 0.705 175.76 1.928 183.552L55.936 216C45.572 179.981 45.572 141.771 55.936 105.752Z" fill="#F26B32"/>
<path fill-rule="evenodd" clip-rule="evenodd" d="M136 408H184C187.2 408 190.091 406.093 191.352 403.152L215.352 347.152C215.779 346.156 215.999 345.084 215.999 344.001C216 339.583 212.418 336 208 336H112C110.917 336 109.845 336.22 108.849 336.647C104.788 338.388 102.907 343.091 104.648 347.152L128.648 403.152C129.909 406.093 132.8 408 136 408ZM178.728 392H141.272L124.136 352H195.864L178.728 392Z" fill="#D9D9D9"/>
<path fill-rule="evenodd" clip-rule="evenodd" d="M130.728 408H189.272L220.136 336H99.864L130.728 408ZM178.728 392H141.272L124.136 352H195.864L178.728 392Z" fill="#D9D9D9"/>
<path fill-rule="evenodd" clip-rule="evenodd" d="M152 336H168V408H152V336Z" fill="#D9D9D9"/>
<path fill-rule="evenodd" clip-rule="evenodd" d="M176 456H144C135.163 456 128 448.837 128 440V400C128 395.582 131.582 392 136 392H184C188.418 392 192 395.582 192 400V440C192 448.837 184.837 456 176 456Z" fill="#804D35"/>
</g>
</svg>
