<svg width="85" height="62" viewBox="0 0 85 62" fill="none" xmlns="http://www.w3.org/2000/svg">
<path fill-rule="evenodd" clip-rule="evenodd" d="M28.9449 2.31274C16.0458 15.2123 16.0458 36.1266 28.9449 49.0262C41.8445 61.9254 62.7588 61.9254 75.658 49.0262L28.9449 2.31274Z" fill="#009BDE"/>
<path fill-rule="evenodd" clip-rule="evenodd" d="M19.8066 31.574C20.9622 37.9662 24.0035 44.0847 28.9445 49.0261C35.1611 55.2422 43.2391 58.4538 51.3846 58.679C48.8153 43.4612 35.6944 31.8309 19.8066 31.574Z" fill="#6EB4E7"/>
<path fill-rule="evenodd" clip-rule="evenodd" d="M70.9167 45C67.0278 48.8889 67.0278 55.1945 70.9167 59.083C74.806 62.9723 81.1115 62.9723 85 59.083L70.9167 45Z" fill="#3288C7"/>
<path fill-rule="evenodd" clip-rule="evenodd" d="M40.0953 35.9729C47.8133 43.6905 60.3273 43.6905 68.0453 35.9729C75.7633 28.2549 75.7633 15.7409 68.0453 8.02295L40.0953 35.9729Z" fill="#6EB4E7"/>
<path fill-rule="evenodd" clip-rule="evenodd" d="M40.0953 35.973C46.6197 42.4971 57.1977 42.4971 63.7221 35.973C70.2462 29.4486 70.2462 18.8706 63.7221 12.3462L40.0953 35.973Z" fill="#3288C7"/>
<path fill-rule="evenodd" clip-rule="evenodd" d="M9.28287 10.9116H11.6035V20.2842H0C0 15.1077 4.15596 10.9116 9.28287 10.9116Z" fill="#FFB819"/>
<path fill-rule="evenodd" clip-rule="evenodd" d="M21.374 26.7999C28.6959 26.7999 34.6315 20.8069 34.6315 13.4142C34.6315 6.02152 28.6959 0.0285645 21.374 0.0285645C14.0521 0.0285645 8.11646 6.02152 8.11646 13.4142C8.11646 20.8069 14.0521 26.7999 21.374 26.7999Z" fill="#009BDE"/>
<path fill-rule="evenodd" clip-rule="evenodd" d="M19.5418 15.8382C21.8996 15.8382 23.811 13.9084 23.811 11.5278C23.811 9.14715 21.8996 7.21729 19.5418 7.21729C17.184 7.21729 15.2726 9.14715 15.2726 11.5278C15.2726 13.9084 17.184 15.8382 19.5418 15.8382Z" fill="white"/>
<path fill-rule="evenodd" clip-rule="evenodd" d="M19.5418 13.683C20.7207 13.683 21.6764 12.7181 21.6764 11.5278C21.6764 10.3375 20.7207 9.37256 19.5418 9.37256C18.3629 9.37256 17.4072 10.3375 17.4072 11.5278C17.4072 12.7181 18.3629 13.683 19.5418 13.683Z" fill="#512C1D"/>
</svg>
