<svg width="197" height="253" viewBox="0 0 197 253" fill="none" xmlns="http://www.w3.org/2000/svg">
<rect width="197" height="204" rx="20" fill="#248DFF"/>
<path fill-rule="evenodd" clip-rule="evenodd" d="M61.0283 61.5554H137.143C140.373 61.5554 143 64.1829 143 67.412V112.766C142.988 111.968 142.337 111.325 141.536 111.325H140.072V67.412C140.072 65.7959 138.758 64.4829 137.143 64.4829H61.0283C59.4137 64.4829 58.0992 65.7959 58.0992 67.412V111.325H56.6353C55.8273 111.325 55.1715 111.981 55.1715 112.789V67.412C55.1715 64.1829 57.799 61.5554 61.0283 61.5554ZM90.2621 125.963H61.0283C57.799 125.963 55.1715 123.335 55.1715 120.106V112.789C55.1715 113.597 55.8273 114.252 56.6353 114.252L58.0992 114.252V120.106C58.0992 121.722 59.4137 123.035 61.0283 123.035H137.143C138.758 123.035 140.072 121.722 140.072 120.106H140.073V114.252L141.536 114.252C142.344 114.252 143 113.597 143 112.789V112.766L143 112.789V120.106C143 123.335 140.373 125.963 137.143 125.963H107.91C107.882 125.494 107.869 125.006 107.869 124.499C107.869 123.691 107.213 123.035 106.405 123.035H91.7668C90.9589 123.035 90.3031 123.691 90.3031 124.499C90.3031 125.006 90.2894 125.494 90.2621 125.963ZM82.984 134.746C87.4791 134.746 89.923 131.793 90.2621 125.963H93.191C92.9772 129.776 91.9161 132.749 90.1141 134.746H82.984ZM115.188 134.746H118.115C120.536 134.746 122.507 136.716 122.507 139.137C122.507 141.558 120.536 143.529 118.115 143.529H80.0563C77.6352 143.529 75.6649 141.558 75.6649 139.137C75.6649 136.716 77.6352 134.746 80.0563 134.746H82.984C82.176 134.746 81.5202 135.401 81.5202 136.209C81.5202 137.017 82.176 137.673 82.984 137.673H115.188C115.996 137.673 116.651 137.017 116.651 136.209C116.651 135.401 115.996 134.746 115.188 134.746ZM115.188 134.746C110.693 134.746 108.249 131.793 107.91 125.963H104.982C105.194 129.776 106.255 132.749 108.059 134.746H115.188ZM94.6943 117.18H103.477C104.285 117.18 104.941 117.836 104.941 118.644C104.941 119.452 104.285 120.107 103.477 120.107H94.6943C93.8864 120.107 93.2306 119.452 93.2306 118.644C93.2306 117.836 93.8864 117.18 94.6943 117.18ZM80.0563 140.601H118.115C118.923 140.601 119.579 139.944 119.579 139.137C119.579 138.331 118.923 137.674 118.115 137.674H80.0563C79.2484 137.674 78.5926 138.331 78.5926 139.137C78.5926 139.944 79.2484 140.601 80.0563 140.601ZM116.103 88.2912C116.103 88.7771 116.35 89.219 116.782 89.5024C118.435 90.5903 119.126 92.4886 118.545 94.3428C117.953 96.227 116.206 97.4083 114.171 97.4041C113.572 97.3488 113.094 97.6308 112.778 98.0727C112.615 98.3009 112.376 98.7711 112.6 99.3732C113.267 101.171 112.695 103.086 111.145 104.253C109.53 105.469 107.354 105.48 105.731 104.282C105.285 103.951 104.719 103.861 104.182 104.042C103.685 104.205 103.317 104.569 103.174 105.038C102.599 106.912 100.926 108.123 98.9141 108.123C96.9026 108.123 95.2309 106.913 94.6544 105.039C94.5098 104.569 94.143 104.206 93.6457 104.042C93.1074 103.865 92.5436 103.953 92.0974 104.281C90.4741 105.483 88.2981 105.47 86.6833 104.253C85.132 103.086 84.5611 101.169 85.2284 99.373C85.4507 98.7709 85.2113 98.3007 85.0499 98.0726C84.7339 97.6305 84.2239 97.3457 83.6573 97.4039C83.6358 97.4039 83.6141 97.4042 83.5925 97.4046C83.5713 97.4049 83.5503 97.4053 83.5298 97.4053C81.5594 97.4053 79.8623 96.187 79.2829 94.3426C78.702 92.4882 79.3933 90.59 81.0465 89.5021C81.4786 89.2187 81.7251 88.7768 81.7251 88.2908C81.7251 87.8049 81.4786 87.363 81.0465 87.0796C79.3933 85.9917 78.702 84.0934 79.2829 82.2391C79.8623 80.3947 81.5594 79.1764 83.5298 79.1764C83.5739 79.1754 83.6179 79.1767 83.6613 79.178L83.7069 79.1793C84.2565 79.1793 84.7425 78.9371 85.0499 78.5093C85.2128 78.2811 85.4523 77.8109 85.2284 77.2088C84.5611 75.4113 85.1336 73.496 86.6833 72.3287C88.2981 71.1133 90.4739 71.102 92.0974 72.3004C92.5436 72.6277 93.1074 72.7184 93.6457 72.5399C94.143 72.3771 94.5113 72.0129 94.6544 71.5441C95.2296 69.67 96.9026 68.4587 98.9141 68.4587C100.926 68.4587 102.597 69.6686 103.174 71.5427C103.318 72.0131 103.685 72.3757 104.182 72.54C104.721 72.7213 105.285 72.6306 105.731 72.3006C107.354 71.1006 109.531 71.1135 111.145 72.3289C112.696 73.4962 113.267 75.4128 112.6 77.209C112.377 77.8111 112.617 78.2813 112.778 78.5094C113.094 78.95 113.596 79.2177 114.171 79.1781C116.211 79.1683 117.953 80.3554 118.545 82.2394C119.126 84.0938 118.435 85.992 116.782 87.0799C116.35 87.3633 116.103 87.8052 116.103 88.2912ZM115.844 93.4929C115.919 93.2564 116.095 92.439 115.228 91.8695C114.004 91.065 113.273 89.7263 113.273 88.29C113.273 86.8535 114.004 85.515 115.229 84.7103C116.095 84.1421 115.919 83.3234 115.844 83.0868C115.675 82.5501 115.191 81.945 114.249 82.0089C112.737 82.0059 111.336 81.3558 110.476 80.1545C109.655 79.0071 109.456 77.5368 109.945 76.2221C110.272 75.3382 109.703 74.7857 109.442 74.5916C108.975 74.2376 108.163 74.0264 107.414 74.579C106.235 75.4473 104.696 75.6922 103.296 75.2291C101.914 74.7743 100.882 73.7331 100.464 72.3747V72.3733C100.22 71.5772 99.5035 71.2924 98.9141 71.2924C98.3246 71.2924 97.608 71.577 97.3628 72.376C96.945 73.7345 95.9137 74.7757 94.531 75.2318C93.1314 75.6909 91.5902 75.4487 90.4131 74.5817C89.6622 74.0278 88.8505 74.2417 88.3844 74.5944C88.1237 74.7899 87.5542 75.3409 87.8815 76.2249C88.3702 77.5408 88.1719 79.0112 87.3502 80.1573C86.4918 81.3586 85.0909 82.0046 83.5779 82.0116C82.6824 81.9421 82.1513 82.5526 81.9827 83.0896C81.9076 83.3261 81.7319 84.1435 82.5989 84.713C83.8228 85.5175 84.5538 86.8562 84.5538 88.2927C84.5538 89.7292 83.8228 91.0677 82.5975 91.8724C81.7319 92.4406 81.9076 93.2593 81.9827 93.4959C82.1513 94.0326 82.6514 94.6433 83.5779 94.5738C85.068 94.5738 86.4903 95.2269 87.3502 96.4282C88.1719 97.5756 88.3702 99.0459 87.8815 100.361C87.5543 101.244 88.1239 101.797 88.3844 101.991C88.852 102.345 89.6636 102.556 90.4131 102.004C91.1992 101.424 92.1442 101.123 93.1018 101.123C93.5821 101.123 94.0651 101.198 94.5326 101.352C95.9138 101.807 96.9465 102.848 97.3644 104.206C97.6093 105.005 98.3248 105.29 98.9141 105.29C99.5033 105.29 100.219 105.006 100.464 104.206C100.882 102.848 101.913 101.807 103.296 101.351C104.696 100.892 106.236 101.132 107.414 102.001C108.163 102.555 108.976 102.341 109.442 101.988C109.703 101.793 110.272 101.242 109.945 100.358C109.456 99.0418 109.655 97.5713 110.476 96.4253C111.335 95.224 112.733 94.5666 114.249 94.5709C115.154 94.6347 115.675 94.0299 115.844 93.4929ZM98.9142 76.9586C92.6657 76.9586 87.5814 82.0427 87.5814 88.2913C87.5814 94.54 92.6655 99.6241 98.9142 99.6241C105.163 99.6241 110.247 94.54 110.247 88.2913C110.247 82.0427 105.163 76.9586 98.9142 76.9586ZM98.9142 96.7908C94.2267 96.7908 90.4148 92.9788 90.4148 88.2913C90.4148 83.6038 94.2267 79.7919 98.9142 79.7919C103.602 79.7919 107.414 83.6038 107.414 88.2913C107.414 92.9788 103.602 96.7908 98.9142 96.7908ZM97.4976 89.1214L95.6659 87.2897C95.112 86.7358 94.2168 86.7358 93.6629 87.2897C93.109 87.8436 93.109 88.7389 93.6629 89.2928L96.496 92.1259C95.9421 91.572 95.9421 90.6768 96.496 90.1229L97.4976 89.1214ZM98.4991 92.1259C99.053 91.572 99.053 90.6768 98.4991 90.1229L97.4976 89.1214L102.163 84.4566C102.716 83.9027 103.612 83.9027 104.166 84.4566C104.719 85.0105 104.719 85.9057 104.165 86.4596L98.4991 92.1259Z" fill="white"/>
<path d="M32.4113 249V235H42.7913V237.2H34.8713V240.84H41.8913V243.04H34.8713V246.8H42.8913V249H32.4113ZM45.4498 249.12C45.0631 249.12 44.5898 249.073 44.0298 248.98L44.2098 247C44.4231 247.053 44.6564 247.08 44.9098 247.08C45.1898 247.08 45.4164 247.04 45.5898 246.96C45.7764 246.88 45.9631 246.68 46.1498 246.36C46.3498 246.027 46.5031 245.56 46.6098 244.96C46.7164 244.36 46.8031 243.52 46.8698 242.44C46.9364 241.347 46.9698 240.013 46.9698 238.44H54.9498V249H52.5298V240.52H49.2298C49.2298 242.027 49.1698 243.307 49.0498 244.36C48.9298 245.413 48.7698 246.247 48.5698 246.86C48.3831 247.473 48.1164 247.953 47.7698 248.3C47.4364 248.633 47.0964 248.853 46.7498 248.96C46.4031 249.067 45.9698 249.12 45.4498 249.12ZM62.8307 249.24C61.284 249.24 59.9907 248.727 58.9507 247.7C57.924 246.673 57.4107 245.347 57.4107 243.72C57.4107 242.187 57.8974 240.887 58.8707 239.82C59.844 238.753 61.0774 238.22 62.5707 238.22C64.1707 238.22 65.4107 238.767 66.2907 239.86C67.184 240.94 67.6307 242.287 67.6307 243.9C67.6307 244.193 67.6174 244.42 67.5907 244.58H59.8307C59.964 245.42 60.304 246.08 60.8507 246.56C61.3974 247.027 62.0707 247.26 62.8707 247.26C63.9107 247.26 64.864 246.84 65.7307 246L67.1507 247.26C66.0574 248.58 64.6174 249.24 62.8307 249.24ZM59.8107 242.98H65.2307C65.1507 242.167 64.8774 241.5 64.4107 240.98C63.944 240.46 63.324 240.2 62.5507 240.2C61.8174 240.2 61.204 240.46 60.7107 240.98C60.2174 241.487 59.9174 242.153 59.8107 242.98ZM70.061 249V238.44H72.461V243.5L77.061 238.44H79.901L75.801 242.88L80.241 249H77.381L74.181 244.64L72.461 246.46V249H70.061ZM84.1765 249V240.52H80.7765V238.44H90.0165V240.52H86.6165V249H84.1765ZM91.936 252.2V238.44H94.356V240.2C95.2893 238.88 96.4827 238.22 97.936 238.22C99.2693 238.22 100.423 238.72 101.396 239.72C102.369 240.707 102.856 242.047 102.856 243.74C102.856 245.407 102.369 246.74 101.396 247.74C100.423 248.727 99.2693 249.22 97.936 249.22C96.4827 249.22 95.2893 248.6 94.356 247.36V252.2H91.936ZM97.376 247.12C98.2293 247.12 98.9427 246.807 99.516 246.18C100.103 245.553 100.396 244.727 100.396 243.7C100.396 242.7 100.103 241.887 99.516 241.26C98.9293 240.633 98.216 240.32 97.376 240.32C96.536 240.32 95.8093 240.64 95.196 241.28C94.596 241.92 94.296 242.74 94.296 243.74C94.296 244.727 94.596 245.54 95.196 246.18C95.8093 246.807 96.536 247.12 97.376 247.12ZM110.354 249.24C108.754 249.24 107.421 248.707 106.354 247.64C105.288 246.573 104.754 245.273 104.754 243.74C104.754 242.207 105.294 240.907 106.374 239.84C107.454 238.76 108.794 238.22 110.394 238.22C111.994 238.22 113.328 238.753 114.394 239.82C115.474 240.887 116.014 242.193 116.014 243.74C116.014 245.26 115.474 246.56 114.394 247.64C113.314 248.707 111.968 249.24 110.354 249.24ZM110.394 247.14C111.354 247.14 112.128 246.813 112.714 246.16C113.301 245.507 113.594 244.7 113.594 243.74C113.594 242.793 113.288 241.993 112.674 241.34C112.061 240.673 111.288 240.34 110.354 240.34C109.408 240.34 108.641 240.667 108.054 241.32C107.468 241.973 107.174 242.78 107.174 243.74C107.174 244.673 107.481 245.473 108.094 246.14C108.708 246.807 109.474 247.14 110.394 247.14ZM118.479 249V238.44H120.899V242.72H125.559V238.44H127.979V249H125.559V244.74H120.899V249H118.479ZM131.018 249V238.44H133.438V242.72H138.098V238.44H140.518V249H138.098V244.74H133.438V249H131.018ZM143.557 249V238.44H145.917V245.52C148.13 242.373 149.797 240.013 150.917 238.44H153.197V249H150.857V241.96L145.837 249H143.557ZM163.153 236.48C162.606 236.973 161.913 237.22 161.073 237.22C160.233 237.22 159.533 236.973 158.973 236.48C158.413 235.973 158.066 235.293 157.933 234.44L159.413 234.16C159.693 235.067 160.246 235.52 161.073 235.52C161.9 235.52 162.453 235.067 162.733 234.16L164.193 234.44C164.06 235.293 163.713 235.973 163.153 236.48ZM156.233 249V238.44H158.593V245.52C160.806 242.373 162.473 240.013 163.593 238.44H165.873V249H163.533V241.96L158.513 249H156.233Z" fill="black"/>
</svg>
