<svg width="197" height="263" viewBox="0 0 197 263" fill="none" xmlns="http://www.w3.org/2000/svg">
<rect width="197" height="197" rx="98.5" fill="#248DFF"/>
<path d="M31.5398 262V256.8H32.8998C34.0865 254.453 34.6798 251.18 34.6798 246.98V245H44.4398V256.8H46.1798L45.8398 262H43.7998V259H33.9398L33.6998 262H31.5398ZM35.5198 256.8H41.9798V247.22H37.0398V248.82C37.0398 252.087 36.5332 254.747 35.5198 256.8ZM48.0142 259.12C47.6276 259.12 47.1542 259.073 46.5942 258.98L46.7742 257C46.9876 257.053 47.2209 257.08 47.4742 257.08C47.7542 257.08 47.9809 257.04 48.1542 256.96C48.3409 256.88 48.5276 256.68 48.7142 256.36C48.9142 256.027 49.0676 255.56 49.1742 254.96C49.2809 254.36 49.3676 253.52 49.4342 252.44C49.5009 251.347 49.5342 250.013 49.5342 248.44H57.5142V259H55.0942V250.52H51.7942C51.7942 252.027 51.7342 253.307 51.6142 254.36C51.4942 255.413 51.3342 256.247 51.1342 256.86C50.9476 257.473 50.6809 257.953 50.3342 258.3C50.0009 258.633 49.6609 258.853 49.3142 258.96C48.9676 259.067 48.5342 259.12 48.0142 259.12ZM59.5952 259L62.5152 255.04C61.7685 254.813 61.1685 254.433 60.7152 253.9C60.2752 253.353 60.0552 252.68 60.0552 251.88C60.0552 250.84 60.4218 250.007 61.1552 249.38C61.8885 248.753 62.9085 248.44 64.2152 248.44H69.5152V259H67.0952V255.44H64.9352L62.4352 259H59.5952ZM64.5552 253.62H67.0952V250.4H64.5352C63.8952 250.4 63.3885 250.547 63.0152 250.84C62.6552 251.12 62.4752 251.507 62.4752 252C62.4752 252.507 62.6618 252.907 63.0352 253.2C63.4218 253.48 63.9285 253.62 64.5552 253.62ZM78.5434 259V248.44H80.9434V253.5L85.5434 248.44H88.3834L84.2834 252.88L88.7234 259H85.8634L82.6634 254.64L80.9434 256.46V259H78.5434ZM95.4189 259.24C93.8189 259.24 92.4856 258.707 91.4189 257.64C90.3522 256.573 89.8189 255.273 89.8189 253.74C89.8189 252.207 90.3589 250.907 91.4389 249.84C92.5189 248.76 93.8589 248.22 95.4589 248.22C97.0589 248.22 98.3922 248.753 99.4589 249.82C100.539 250.887 101.079 252.193 101.079 253.74C101.079 255.26 100.539 256.56 99.4589 257.64C98.3789 258.707 97.0322 259.24 95.4189 259.24ZM95.4589 257.14C96.4189 257.14 97.1922 256.813 97.7789 256.16C98.3656 255.507 98.6589 254.7 98.6589 253.74C98.6589 252.793 98.3522 251.993 97.7389 251.34C97.1256 250.673 96.3522 250.34 95.4189 250.34C94.4722 250.34 93.7056 250.667 93.1189 251.32C92.5322 251.973 92.2389 252.78 92.2389 253.74C92.2389 254.673 92.5456 255.473 93.1589 256.14C93.7722 256.807 94.5389 257.14 95.4589 257.14ZM103.543 259V248.44H105.943L109.243 253.34L112.563 248.44H114.963V259H112.523V251.96L109.203 256.7L105.903 252V259H103.543ZM117.997 259V248.44H127.417V259H124.997V250.52H120.417V259H117.997ZM139.318 259H136.918V257.7C136.064 258.713 134.924 259.22 133.498 259.22C132.444 259.22 131.551 258.933 130.818 258.36C130.098 257.773 129.738 256.96 129.738 255.92C129.738 254.787 130.131 253.927 130.918 253.34C131.704 252.753 132.738 252.46 134.018 252.46C135.044 252.46 136.018 252.607 136.938 252.9V252.7C136.938 251.967 136.711 251.407 136.258 251.02C135.818 250.633 135.178 250.44 134.338 250.44C133.378 250.44 132.371 250.66 131.318 251.1L130.658 249.16C131.964 248.573 133.304 248.28 134.678 248.28C136.211 248.28 137.364 248.667 138.138 249.44C138.924 250.213 139.318 251.313 139.318 252.74V259ZM136.978 255.18V254.58C136.258 254.3 135.451 254.16 134.558 254.16C133.798 254.16 133.204 254.307 132.778 254.6C132.351 254.893 132.138 255.307 132.138 255.84C132.138 256.32 132.331 256.7 132.718 256.98C133.104 257.26 133.591 257.4 134.178 257.4C134.991 257.4 135.658 257.193 136.178 256.78C136.711 256.367 136.978 255.833 136.978 255.18ZM142.196 259V248.44H144.616V252.72H149.276V248.44H151.696V259H149.276V254.74H144.616V259H142.196ZM154.775 246.82V244.52H157.375V246.82H154.775ZM154.875 259V248.44H157.295V259H154.875ZM162.578 247.1V244.74H165.038V247.1H162.578ZM158.597 247.1V244.74H161.058V247.1H158.597ZM160.598 259V248.44H163.018V259H160.598Z" fill="black"/>
<path fill-rule="evenodd" clip-rule="evenodd" d="M145 68.5C145 72.0899 142.09 75 138.5 75C134.91 75 132 72.0899 132 68.5C132 64.9101 134.91 62 138.5 62C142.09 62 145 64.9101 145 68.5ZM49.5782 78H66.5385C70.6322 78 73.9793 81.318 73.9999 85.396L74 85.4034C74 85.4072 73.9999 85.411 73.9997 85.415L73.9783 108.491C73.9768 110.225 72.5652 111.629 70.8254 111.629H70.8224C69.0811 111.628 67.6707 110.22 67.6724 108.485L67.6938 85.4218V85.4215C67.6664 85.0691 67.3638 84.8017 67.0091 84.8155C66.6543 84.8294 66.3742 85.1197 66.3742 85.4733C66.3749 99.3496 66.3884 101.543 66.4032 103.955V103.955V103.955C66.4219 107.006 66.4428 110.407 66.4428 138.231C66.4428 140.312 64.7489 142 62.6593 142C60.5696 142 58.8757 140.312 58.8757 138.231V108.102H57.242V138.231C57.242 140.312 55.548 142 53.4583 142C51.3687 142 49.6746 140.312 49.6746 138.231L49.6732 85.4273C49.6732 85.0847 49.3955 84.8062 49.0516 84.8042C48.7077 84.8022 48.4266 85.0774 48.4226 85.42V85.4278L48.3061 108.504C48.2971 110.233 46.8875 111.629 45.1534 111.629H45.137C43.3959 111.621 41.9913 110.207 42 108.473L42.1167 85.396C42.1373 81.318 45.4842 78 49.5782 78ZM58.5 75C62.0899 75 65 72.0899 65 68.5C65 64.9101 62.0899 62 58.5 62C54.9101 62 52 64.9101 52 68.5C52 72.0899 54.9101 75 58.5 75ZM89.5782 78H106.539C110.632 78 113.979 81.318 114 85.396L114 85.405L114 85.415L113.978 108.491C113.977 110.225 112.565 111.629 110.825 111.629H110.822C109.081 111.628 107.671 110.22 107.672 108.485L107.694 85.4218V85.4215C107.666 85.0691 107.364 84.8017 107.009 84.8155C106.654 84.8294 106.374 85.1197 106.374 85.4733C106.375 99.3496 106.388 101.543 106.403 103.955V103.955C106.422 107.006 106.443 110.407 106.443 138.231C106.443 140.312 104.749 142 102.659 142C100.57 142 98.8757 140.312 98.8757 138.231V108.102H97.242V138.231C97.242 140.312 95.548 142 93.4583 142C91.3687 142 89.6746 140.312 89.6746 138.231L89.6732 85.4273C89.6732 85.0847 89.3955 84.8062 89.0516 84.8042C88.7077 84.8022 88.4266 85.0774 88.4226 85.42V85.4278L88.3061 108.504C88.2971 110.233 86.8875 111.629 85.1534 111.629H85.137C83.3959 111.621 81.9913 110.207 82 108.473L82.1167 85.396C82.1373 81.318 85.4842 78 89.5782 78ZM98.5 75C102.09 75 105 72.0899 105 68.5C105 64.9101 102.09 62 98.5 62C94.9101 62 92 64.9101 92 68.5C92 72.0899 94.9101 75 98.5 75ZM129.578 78H146.539C150.632 78 153.979 81.318 154 85.396C154 85.4025 154 85.4085 154 85.415L153.978 108.491C153.977 110.225 152.565 111.629 150.825 111.629H150.822C149.081 111.628 147.671 110.22 147.672 108.485L147.694 85.4218V85.4215C147.666 85.0691 147.364 84.8017 147.009 84.8155C146.654 84.8294 146.374 85.1197 146.374 85.4733C146.375 99.3496 146.388 101.543 146.403 103.955C146.422 107.006 146.443 110.406 146.443 138.231C146.443 140.312 144.749 142 142.659 142C140.57 142 138.876 140.312 138.876 138.231V108.102H137.242V138.231C137.242 140.312 135.548 142 133.458 142C131.369 142 129.675 140.312 129.675 138.231L129.673 85.4273C129.673 85.0847 129.395 84.8062 129.052 84.8042C128.708 84.8022 128.427 85.0774 128.423 85.42V85.4278L128.306 108.504C128.297 110.233 126.887 111.629 125.153 111.629H125.137C123.396 111.621 121.991 110.207 122 108.473L122.117 85.396C122.137 81.318 125.484 78 129.578 78Z" fill="white"/>
</svg>
