<svg width="1440" height="5665" viewBox="0 0 1440 5665" fill="none" xmlns="http://www.w3.org/2000/svg">
<g id="Group 2">
<path id="Path Copy 7" fill-rule="evenodd" clip-rule="evenodd" d="M1512.17 110.875C1517.71 109.749 1523.35 109.185 1529 109.185C1575.94 109.185 1614 147.4 1614 194.542C1614 241.684 1575.94 279.899 1529 279.899H1440V5390H-14V369.429C-40.2305 354.891 -58 326.836 -58 294.612C-58 247.453 -19.943 209.224 26.9953 209.224C32.6471 209.224 38.2876 209.789 43.8261 210.915C48.0027 189.973 61.5058 172.11 80.4645 162.441C99.4194 152.771 121.744 152.366 141.038 161.338C158.499 113.019 211.644 88.071 259.74 105.613C300.135 120.345 324.12 160.367 320.422 201.43C326.314 184.639 338.441 170.613 354.465 162.441C373.419 152.771 395.744 152.366 415.038 161.338C432.499 113.019 485.644 88.071 533.74 105.613C551.36 112.039 565.858 123.277 576.298 137.314C569.627 94.2454 593.937 51.0483 636.26 35.6125C684.356 18.071 737.501 43.0188 754.962 91.3376C774.256 82.3659 796.581 82.7715 815.536 92.4405C818.124 93.7607 820.611 95.2337 822.986 96.8464C847.645 72.4087 885.009 62.9228 919.74 75.5853C960.135 90.3126 984.12 130.32 980.422 171.368C986.314 154.583 998.441 140.562 1014.46 132.393C1033.42 122.727 1055.74 122.322 1075.04 131.29C1092.5 82.9889 1145.64 58.0501 1193.74 75.5853C1211.36 82.0093 1225.86 93.2434 1236.3 107.276C1229.63 64.2223 1253.94 21.0407 1296.26 5.61053C1344.36 -11.9247 1397.5 13.0141 1414.96 61.3155C1434.26 52.3471 1456.58 52.7525 1475.54 62.418C1494.49 72.0836 1508 89.9409 1512.17 110.875Z" fill="#248DFF"/>
<path id="Path Copy 13" fill-rule="evenodd" clip-rule="evenodd" d="M1460 5555.82C1454.35 5555.82 1448.71 5555.25 1443.17 5554.13C1439 5575.06 1425.49 5592.92 1406.54 5602.58C1387.58 5612.25 1365.26 5612.65 1345.96 5603.68C1328.5 5651.99 1275.36 5676.92 1227.26 5659.39C1184.94 5643.96 1160.63 5600.78 1167.3 5557.72C1156.86 5571.76 1142.36 5582.99 1124.74 5589.41C1076.64 5606.95 1023.5 5582.01 1006.04 5533.71C986.744 5542.68 964.419 5542.27 945.464 5532.61C929.441 5524.44 917.314 5510.42 911.422 5493.63C915.12 5534.68 891.135 5574.69 850.74 5589.41C816.009 5602.08 778.645 5592.59 753.986 5568.15C751.611 5569.77 749.124 5571.24 746.536 5572.56C727.581 5582.23 705.256 5582.63 685.962 5573.66C668.501 5621.98 615.356 5646.93 567.26 5629.39C524.937 5613.95 500.627 5570.75 507.298 5527.69C496.858 5541.72 482.36 5552.96 464.74 5559.39C416.644 5576.93 363.499 5551.98 346.038 5503.66C326.744 5512.63 304.419 5512.23 285.465 5502.56C269.441 5494.39 257.314 5480.36 251.422 5463.57C255.12 5504.63 231.135 5544.65 190.74 5559.39C142.644 5576.93 89.4989 5551.98 72.038 5503.66C52.7435 5512.63 30.4194 5512.23 11.4645 5502.56C-7.49419 5492.89 -20.9973 5475.03 -25.1739 5454.09C-30.7124 5455.21 -36.3529 5455.78 -42.0047 5455.78C-88.943 5455.78 -127 5417.55 -127 5370.39C-127 5323.23 -88.943 5285 -42.0047 5285H231.995H243.889H517.889C545.789 5285.05 570.256 5299.96 583.795 5322.32C594.26 5317.69 605.829 5315.13 617.995 5315.13H891.995H903.889H1177.89C1217.89 5315.19 1250.83 5345.81 1254.63 5385.1H1460C1506.94 5385.1 1545 5423.32 1545 5470.46C1545 5517.6 1506.94 5555.82 1460 5555.82Z" fill="#248DFF"/>
</g>
</svg>
