<svg width="30" height="30" viewBox="0 0 30 30" fill="none" xmlns="http://www.w3.org/2000/svg">
<path fill-rule="evenodd" clip-rule="evenodd" d="M8.92152 0H21.026C25.9453 0 29.9474 4.00217 29.9475 8.92152V21.026C29.9475 25.9453 25.9453 29.9475 21.026 29.9475H8.92152C4.00217 29.9475 0 25.9453 0 21.026V8.92152C0 4.00217 4.00217 0 8.92152 0ZM21.026 26.9348C24.2893 26.9348 26.9348 24.2893 26.9348 21.026V8.92152C26.9348 5.65815 24.2893 3.01272 21.026 3.01272H8.92152C5.65821 3.01272 3.01272 5.65815 3.01272 8.92152V21.026C3.01272 24.2893 5.65821 26.9348 8.92152 26.9348H21.026Z" fill="#238DFF"/>
<path fill-rule="evenodd" clip-rule="evenodd" d="M7.22827 14.9737C7.22827 10.7029 10.7029 7.22827 14.9738 7.22827C19.2446 7.22827 22.7192 10.7028 22.7192 14.9737C22.7192 19.2446 19.2446 22.7192 14.9738 22.7192C10.7029 22.7192 7.22827 19.2445 7.22827 14.9737ZM10.241 14.9738C10.241 17.5876 12.3599 19.7065 14.9738 19.7065C17.5876 19.7065 19.7065 17.5876 19.7065 14.9738C19.7065 12.3599 17.5876 10.241 14.9738 10.241C12.36 10.241 10.241 12.3599 10.241 14.9738Z" fill="#238DFF"/>
<path fill-rule="evenodd" clip-rule="evenodd" d="M22.7342 9.14238C23.7592 9.14238 24.5902 8.31143 24.5902 7.2864C24.5902 6.26137 23.7592 5.43042 22.7342 5.43042C21.7092 5.43042 20.8782 6.26137 20.8782 7.2864C20.8782 8.31143 21.7092 9.14238 22.7342 9.14238Z" fill="#238DFF"/>
</svg>
