<svg width="246" height="285" viewBox="0 0 246 285" fill="none" xmlns="http://www.w3.org/2000/svg">
<g filter="url(#filter0_d_0_232)">
<mask id="path-1-inside-1_0_232" fill="white">
<path d="M193.952 144.868L194.737 143.694L196 140.186L192.929 138.291L192.619 137.962L192.31 137.526L192.43 137.302L192.587 137.097L192.959 136.73L193.165 136.578L193.347 136.369L193.47 136.129V135.749L193.321 135.54L193.095 135.384L192.485 135.313L191.909 135.388L191.53 135.38L191.082 135.292L190.297 134.914L189.943 134.632L189.697 134.391L189.587 134.192L189.484 133.968L189.437 133.696L189.422 133.408L189.437 133.053L189.422 132.658L189.303 132.137L189.145 131.853L188.972 131.663L187.763 130.629L187.573 130.195L187.541 129.83L187.643 129.516L187.936 129.022L188.499 128.258L188.563 128.191L188.657 128.117L188.806 128.046L188.964 128.027L190.028 128.213L190.107 128.217L190.141 128.209L190.352 128.059L190.487 127.873L190.589 127.602L190.644 127.303L190.708 126.215L190.574 125.083L190.361 124.622L190.062 124.37L187.904 124.391L187.281 124.31L186.98 124.22L186.571 123.864L186.074 123.285L184.28 120.8L183.625 120.324L182.156 118.906L181.603 118.515L181.153 118.307L180.01 118.461L178.973 118.797L178.752 118.916L178.57 119.087L178.468 119.322L178.43 119.615L178.421 119.918L178.389 120.202L178.293 120.452L177.988 120.839L177.901 121.074L177.884 121.354L177.922 121.623L177.948 121.879L177.892 122.112L177.741 122.264L177.291 122.492L177.079 122.642L176.922 122.866L176.785 123.133L176.478 123.592L176.312 123.799L176.113 123.973L175.862 124.067L175.569 124.105L173.539 123.913L173.232 123.936L172.963 124L172.726 124.118L172.528 124.278L172.165 124.663L171.835 125.092L171.645 125.271L171.402 125.378L170.822 125.459L170.561 125.534L170.357 125.684L170.167 125.88L169.678 126.532L169.489 126.713L169.243 126.816L168.951 126.844L168.279 126.797L167.996 126.829L167.759 126.94L167.362 127.284L167.143 127.416L166.891 127.497H166.59L163.495 126.792L163.297 126.797L163.054 126.841L162.832 126.952L162.625 127.123L162.12 127.745L161.582 128.209L157.587 127.211L156.551 127.1L155.881 127.126L155.619 127.311L155.288 127.444L154.727 127.553L154.382 127.44L154.096 127.294L153.614 126.938L153.196 126.811L152.635 126.779L152.304 126.692L152.029 126.566L151.839 126.386L151.673 126.19L151.522 125.976L151.404 125.75L151.325 125.485L151.334 125.158L151.404 124.419L151.357 124.037L151.172 123.609L150.897 123.447L150.528 123.404L149.523 123.428L149.201 123.304L148.941 123.142L147.471 121.644L147.311 121.437L147.177 121.213L147.139 120.929L147.171 120.602L147.328 119.954L147.471 119.741L147.659 119.653L148.179 119.67L148.427 119.604L148.625 119.45L148.781 119.224L148.917 118.968L149.146 118.393L149.231 118.077L149.271 117.75V117.447L149.128 116.594L148.86 115.515L148.687 115.031L148.467 114.552L148.164 114.123L147.446 113.36L146.279 112.382L146.2 112.262L146.121 112.051L146.153 111.378L146.089 110.968L145.884 110.771L145.601 110.692L144.777 110.66L144.091 110.515L143.784 110.308L143.626 110.045L143.649 109.756L143.72 109.457L143.822 109.158L143.862 108.87L143.807 108.564L143.404 108.167L143.182 107.825L142.992 107.469L142.837 107.02L142.572 106.804L142.28 106.687L141.981 106.691L141.745 106.796L141.523 106.932L140.923 107.422L140.687 107.539L140.149 107.676L139.543 107.725L136.786 107.451L136.161 107.484L135.672 107.689L134.907 108.396L134.504 108.477L133.911 108.436L131.494 107.768L131.232 107.838L131.027 108L130.617 108.759L130.419 108.992L130.15 109.169L129.694 109.237L129.393 109.145L129.165 108.987L128.826 108.46L128.549 108.118L127.971 107.62L127.538 107.417L127.158 107.332L125.691 107.746L125.121 107.738L124.835 107.601L124.671 107.372L124.686 107.082L124.765 106.806L124.882 106.533L125.588 105.288L126.077 104.179L126.392 103.275L126.559 102.615L126.827 100.925L126.834 100.667L126.623 100.357L126.179 99.9066L124.52 98.6184L124.061 98.345L121.305 97.309L120.794 97.0291L120.469 96.7664L120.361 96.5229L120.297 96.2516L120.265 95.9461V95.6171L120.288 95.2818L120.344 94.9378L120.659 93.5878L120.881 92.1566L120.919 91.4858L120.896 91.1761L120.864 90.877L120.738 90.3195L120.659 90.0524L120.548 89.7982L120.422 89.559L120.162 89.2172L118.921 88.0338L118.409 87.7561L118.014 87.6578L117.69 87.7155L117.257 87.6728L116.622 87.4826L116.022 86.9871L115.683 86.7799L115.415 86.6645L115.169 86.7029L114.95 86.814L114.768 87.0084L114.514 87.2199L114.224 87.3801L113.668 87.3972L113.425 87.2263L113.267 86.9871L113.203 86.7029L112.992 84.272L113.147 79.314L113.226 78.609L114.141 74.121L114.173 73.4588L114.12 72.8478L113.994 72.286L113.408 70.6711L113.329 70.2097L113.384 69.8508L113.574 69.6863L113.836 69.6115L114.824 69.6991L115.099 69.6393L115.312 69.4962L115.447 69.2868L115.485 69.0091L115.357 68.411L115.154 68.8724L114.591 69.0049L114.205 68.238L113.634 67.6057L112.987 67.1784L112.303 66.9947L111.592 67.0802L110.797 66.8324L109.662 65.1171L108.916 64.4078L108.173 64.222L106.659 64.2305L105.881 63.9272L105.202 63.3099L103.645 61.2997L103.266 60.4367L103.409 60.3555L103.835 58.6552L103.925 58.0122L103.929 57.1684L103.874 56.5254L103.729 55.985L103.424 55.4274L102.773 54.8144L100.203 53.5562L99.4843 52.7914L97.5796 50.1746L96.1527 49.1129L94.6917 48.7113L87.5702 48.9036L86.4035 49.2475L83.3151 50.8795L82.6795 50.9159L81.8626 50.3626L81.3401 50.3135L80.696 50.7706L79.8386 52.3471L79.3224 52.9153L78.4074 53.1546L73.7898 52.377L73.1478 51.4841L72.6999 50.243L71.8575 48.7712L70.9808 48.1581L69.8654 48L68.6923 48.1837L67.6877 48.6109L66.6362 49.5658L65.9153 50.6382L65.1518 51.5503L63.9744 52.0373L62.6478 52.1911L61.9589 52.5436L61.4534 53.507L60.7069 55.4958L59.9647 56.8159L58.9537 56.8287L56.7313 55.9123L55.5582 56.2862L54.2124 57.4675L54.2508 57.6042L54.5344 58.2237L54.6603 58.4159L54.8501 58.6103L55.0868 58.6594L55.3087 58.574L55.7096 58.2877L55.8845 58.245L56.0104 58.3198L56.0893 58.4437L56.1533 58.6829L56.1746 59.3174L56.0424 62.3165L55.94 63.2522L55.812 63.8866L55.3087 64.9739L54.6688 65.8668L54.0183 66.5034L52.4251 67.6997L51.4674 68.191L50.9235 68.3362L50.3007 68.3854L50.064 68.5285L50 68.8681L50.9555 72.3821L51.5015 76.5647L51.7553 77.7118L51.943 78.2373L52.0539 78.4467L52.1734 78.5813L52.3227 78.5215L52.4741 78.3377L53.4915 76.6032L53.6642 76.4216L53.8925 76.3362L54.1569 76.3832L54.7008 76.5925L55.6307 77.1949L57.2197 78.6411L57.5268 79.0576L57.6463 79.2841L57.7401 79.519L57.8361 79.7989L57.9769 80.3628L58.0792 80.6128L58.2691 80.8007L58.5293 80.9289L59.7535 81.3262L60.259 81.6296L60.4659 81.809L60.8136 82.2042L60.9394 82.4328L61.0482 82.672L61.1292 82.9348L61.1591 83.2744L61.1207 83.6504L60.9159 84.1759L60.2441 85.2333L59.9732 85.7481L59.8794 86.0984L59.826 86.4872L59.794 86.9871L59.809 87.551L59.9689 89.3881L59.9519 89.9948L59.7471 90.4989L59.5082 90.516L59.2864 90.4241L59.0966 90.2319L58.6871 89.8858L58.4269 89.7598L58.1048 89.6893L56.4988 89.7149L56.2791 89.9649L56.2386 90.4647L56.4689 91.5563L56.7526 91.9408L57.0533 92.1245L57.3391 92.1672L57.5674 92.2869L57.7401 92.4834L60.5683 96.9245L61.7989 98.3301L61.9397 98.518L62.0357 98.894L62.0677 99.4323L61.0951 105.08V105.42L61.1676 105.715L61.4193 105.918L61.6326 105.978L63.5223 105.715L64.192 105.817L64.7444 106.048L65.1155 106.418L65.2584 106.642L65.3523 106.896L65.5016 107.439L65.6743 108.573L66.3803 111.318L66.3888 111.69L66.3099 112.145L65.9942 112.884L65.749 113.253L65.5016 113.514L63.9147 114.422L63.7334 114.612L63.5841 114.845L63.1021 115.934L61.671 118.109L61.1911 119.008L60.7026 120.089L60.6301 120.394V120.726L60.8519 121.149L61.0567 121.416L61.2849 121.633L62.17 122.272L62.3108 122.522L62.3513 122.838L62.1146 123.75L61.6091 125.254L61.5067 125.476L61.3404 125.671L61.1036 125.782L60.5128 125.857L60.3315 126.06L60.3145 126.44L60.5277 127.023L60.805 127.294L61.3489 127.625L61.5067 127.824L61.6091 128.014L61.6646 128.168L61.688 128.266L61.6795 128.497L61.6262 128.89L61.1676 130.449L61.0482 130.723L60.8989 130.953L60.7176 131.139L60.4894 131.259L60.2057 131.278L59.295 131.073L59.0348 131.082L58.8364 131.214L58.7426 131.458L58.7745 131.733L58.9964 132.013L59.7685 132.483L59.9519 132.658L59.9881 132.914L59.8324 133.241L59.6725 133.5L59.4464 133.669L59.1777 133.743L58.0323 133.871L57.8979 134.104L57.9214 134.455L58.2541 135.063L58.5677 135.269L58.8769 135.324L59.1457 135.251L61.1036 134.427L61.3809 134.359L63.5457 134.277L63.8379 134.359L64.0811 134.489L64.4842 134.839L65.107 135.659L65.2264 135.886L65.3672 136.102L65.4952 136.328L65.6274 136.533L65.8108 136.903L66.1435 139.111L66.8069 140.78L66.9562 142.032L67.1929 142.465L67.4467 142.668L68.0524 142.628L68.383 142.668L68.6944 142.752L68.9141 142.91L69.0826 143.104L69.2085 143.339L69.8142 144.809L70.2557 145.642L70.4071 145.843L70.5884 146.031L70.8401 146.163L71.4245 146.37L71.6015 146.812L71.6804 147.537L71.4096 150.666L71.4757 151.578V151.905L71.4415 152.245L71.4096 153.268L71.4245 153.543L71.497 153.802L71.6015 154.056L71.7423 154.263L71.9257 154.449L72.1305 154.62L72.8386 155.043L73.0454 155.212L73.1628 155.594L73.2502 156.12V157.183L73.4635 157.611L73.5979 158.01L73.6128 158.354L73.1628 159.157L72.8322 159.501L72.5165 159.736L70.8102 160.157L70.6844 160.215L70.5329 160.313L70.39 160.537L70.2962 160.868L70.2898 161.413L70.3751 162.131L71.0704 165.062L71.0299 165.252L70.9041 165.497L70.5969 165.854L70.4306 166.185V166.687L70.5244 167.01L70.6439 167.3L73.5659 172.13L73.6597 172.38L73.7088 172.651L73.5488 173.087L73.2587 173.602L72.1219 174.856L71.7743 175.131L70.39 175.845L70.1618 176.069L69.8867 176.458L69.5625 177.223L68.7414 178.344L68.4961 178.603L68.2999 178.756L68.061 178.874L67.3038 179.145L67.0905 179.286L66.4827 179.878L66.135 180.139L64.4842 180.908L62.635 182.305L62.3897 182.386L62.1295 182.409L61.688 182.332L61.4662 182.409L61.1911 182.61L60.8434 183.155L60.5683 183.415L60.259 183.541L59.6341 183.482L59.3653 183.488L59.1222 183.574L58.7276 183.888L58.5762 184.146L58.4973 184.479L58.6487 185.161L58.798 185.535L59.0667 186.079L59.1051 186.489L59.0902 187.019L58.8919 188.049L58.7511 188.585L58.6082 189.01L58.2221 189.758L57.9449 190.196L57.5823 190.648L57.5268 190.83L57.5759 190.99L58.2541 191.104L58.8919 191.089L60.0479 190.877L60.323 190.869L60.5832 190.922L60.741 191.097L60.805 191.418L60.8199 191.828L60.773 192.458L60.709 192.885L60.5597 193.255L60.3465 193.537L59.5722 193.906L59.3035 194.145L59.1371 194.34L58.9964 195.485L61.4918 195.859L61.8458 196.019L62.2255 196.316L62.3599 196.578L62.4303 196.899L62.3748 197.441L62.281 197.8L62.1551 198.125L61.6262 199.176L61.5387 199.443L61.4747 199.742L61.4193 200.077L61.4044 200.723L61.4918 201.609L61.6091 201.957L61.7989 202.348L62.2084 202.946L62.5006 203.263L62.7928 203.48L64.8382 204.516L65.0046 204.769L65.0984 205.112L65.1155 205.693L65.0515 206.653L64.9726 206.843L64.8318 207.009L64.6655 207.146L64.4522 207.285L64.1451 207.396L63.9552 207.526L63.7974 207.721L63.7185 207.983V208.268L63.8763 208.725L65.0515 211.151L65.2264 211.707L65.2328 212.736L65.1859 213.439L65.0984 213.721L64.9641 213.96L64.7764 214.136L62.249 215.812L62.0741 216.005L61.9333 216.197L61.8139 216.396L61.7605 216.522L61.7115 216.697L61.688 216.808L61.656 217.098L61.6496 217.62L61.671 217.81L62.4772 219.32L62.6777 219.837L62.8035 220.266L62.8355 220.888L62.9763 221.228L63.2855 221.554L64.0576 221.954L64.5546 222.11L65.9942 222.343L66.2395 222.437L66.4443 222.642L66.6554 222.964L67.3507 224.49L68.2849 225.884L68.6326 226.609L68.735 227.021L68.9077 227.207L69.2148 227.361L69.9102 227.375L70.6844 227.264L71.2347 227.51L71.7188 228.595L73.7088 229.191L73.9348 229.409L74.1652 229.676L74.0649 229.885L73.8581 230.014L73.6213 230.118L73.4166 230.291L73.2971 230.569L73.359 231.09L73.5808 231.511L73.9434 231.926L74.9885 232.69L75.8246 233L78.8255 232.695L80.1222 232.752L80.4614 232.59L80.6192 232.348L80.5104 231.518L80.5168 231.233L80.5872 230.964L80.7216 230.734L80.8709 230.522L81.6067 229.819L81.9437 229.424L82.3639 228.764L82.5132 228.399L82.7648 227.574L82.895 227.314L83.0592 227.119L83.667 226.782L84.7655 225.946L85.2773 225.81L86.9687 225.771L87.4806 225.686L87.8197 225.521L88.3678 224.667L88.7774 224.225L89.093 224.092L89.4407 224.12L89.8118 224.225L91.3282 224.338L91.6204 224.425L92.1089 224.705L92.3541 224.801L92.8042 224.883L93.0175 224.748L93.0814 224.534L93.0175 224.284L92.9236 224.043L92.5589 223.398L92.465 223.206L92.4245 223.065L92.4416 222.832L92.6463 222.546L92.9791 222.232L93.7042 221.813L94.0434 221.428L94.583 220.7L94.8581 220.627L95.1503 220.664L96.2466 221.106L96.4364 221.255L96.4599 221.486L96.3895 221.736L95.8222 222.65L95.5833 223.174L95.498 223.456V223.742L95.5683 223.983L95.7432 224.169L95.9949 224.297L104.919 226.201L105.156 226.303L105.315 226.427L105.369 226.636V226.914L105.347 227.237L105.426 227.557L105.616 227.869L106.128 228.149L106.57 228.153L106.838 227.993L106.973 227.715L107.935 223.464L108.229 222.601L108.308 222.306L108.329 222.003L108.314 221.396L108.361 220.76L108.498 220.128L108.664 219.809L108.907 219.502L109.404 219.147L109.775 219.032H110.14L110.43 219.119L110.69 219.237L110.921 219.382L111.317 219.724L111.482 219.91L111.744 220.35L111.87 220.612L112.036 220.835L112.281 221.055L112.486 221.072L112.627 221.05L114.303 220.442L114.564 220.294L115.131 219.762L115.391 219.737L115.628 219.809L117.05 220.623L117.296 220.597L117.483 220.448L117.778 219.987L118.439 218.654L118.652 218.365L118.859 218.322L119.047 218.41L119.456 218.777L119.823 218.906L120.446 218.987L121.188 218.748L121.647 218.69L121.969 218.733L122.174 218.886L122.34 219.079L123.344 220.862L123.519 221.087L123.786 221.287L124.046 221.311L124.283 221.249L125.215 220.691L126.883 220.192L127.071 220.046L127.631 219.378L127.9 219.132L128.365 218.842L128.683 218.886L129.472 219.254L130.001 219.222L130.302 219.064L130.822 218.506L131.313 218.203L131.654 218.179L131.889 218.31L132.014 218.528L132.125 218.762L132.339 219.019L132.646 219.213L133.341 219.333L133.712 219.006L133.911 218.677L133.926 218.333L133.889 217.434L133.911 217.124L133.972 216.806L134.066 216.528L135.284 214.311L135.497 214.012L135.783 213.681L136.692 212.969L136.944 212.715L137.411 212.066L137.931 211.463L139.185 210.28L139.484 209.842L139.784 209.541L141.958 208.039L142.124 207.832L142.265 207.622L142.478 207.219L143.316 205.142L143.617 204.751L144.082 204.303L145.663 203.196L145.955 202.895L146.01 202.716L146.057 202.436L146.113 201.487L146.096 201.188L146.066 200.898L146.004 200.637L145.852 200.421L145.624 200.276L145.029 200.122L144.784 199.994L144.628 199.806L144.541 199.554L144.509 199.261L144.547 198.343L144.675 198.035L144.88 197.751L145.503 197.183L145.671 196.912L146.294 195.16L146.814 194.133L146.91 193.844L146.957 193.534L146.934 193.244L146.855 192.994L146.65 192.518L146.618 192.257L146.665 191.977L146.776 191.71L147.486 190.52L147.597 190.238L148.047 187.423L148.054 187.122L147.966 186.87L147.808 186.671L147.61 186.504L147.431 186.314L147.305 186.105L147.288 185.819L147.328 185.547L147.399 185.285L147.446 185.137L148.039 183.964L148.118 183.689L148.143 183.415L148.007 183.206L147.817 183.037L147.384 182.728L147.209 182.542L147.115 182.32L147.162 182.068L147.281 181.828L147.785 181.243L147.951 181.025L148.433 180.03L148.815 179.506L149.107 179.256L149.406 179.103L151.199 178.895L155.124 176.131L155.627 175.965L156.205 175.888L158.078 175.894L158.637 175.804L159.53 175.475L159.919 175.394L160.17 175.416L160.454 175.486L160.644 175.621L160.778 175.819L160.848 176.078L160.889 176.364L160.951 176.637L161.038 176.889L161.149 177.114L161.284 177.33L161.465 177.513L161.67 177.684L161.842 177.876L161.945 178.116L162.002 178.385L162.056 178.977L162.126 179.237L162.246 179.451L162.621 179.874L162.887 180.273L163.054 180.472L163.314 180.604L163.455 180.581L163.583 180.444L163.668 180.177L163.802 179.483L163.937 179.094L164.197 178.667L164.457 178.519L164.717 178.556L164.924 178.705L165.118 178.883L165.389 179.047L165.76 179.139L166.426 179.109L166.797 178.987L167.079 178.818L167.23 178.603L167.356 178.336L167.45 178.026L167.578 177.364L167.639 176.84L167.701 176.575L167.87 176.221L168.107 176.086L168.384 176.063L168.621 176.18L168.787 176.377L168.866 176.629L168.898 176.917L168.834 178.519L168.872 178.797L169 179.021L169.228 179.177L174.027 180.081L174.33 180.017L174.497 179.936L174.74 179.526L175.239 178.447L175.789 177.535L176.689 176.612L176.843 176.392L176.928 176.114L176.958 175.819L176.896 174.969L176.952 174.704L177.071 174.469L178.363 172.76L178.863 171.692L179.082 171.122L179.21 170.455L179.234 169.81L179.219 169.206L179.14 168.637L179.082 168.379L179.035 168.114L179.074 167.866L179.249 167.529L179.47 167.343L179.724 167.211L181.689 166.6L182.115 166.375L182.403 166.119L182.469 165.837L182.497 165.54L182.358 165.015L182.013 164.017L181.904 163.47L181.817 162.893L181.793 162.27L181.759 161.977L181.697 161.714L181.317 160.723L181.264 160.456L181.462 160.059L181.895 159.597L183.484 158.384L183.83 158.044L184.075 157.502L184.335 156.769L184.557 156.31L184.768 156.261L185.274 156.464L185.641 156.528L186.255 156.438L186.594 156.29L186.88 156.122L187.966 154.994L188.283 154.564L188.563 154.067L188.665 153.789L188.695 153.492L188.68 153.197L188.61 152.932L188.49 152.7L188.2 152.283L188.023 152.089L187.754 151.7L187.669 151.523L187.611 151.367L187.573 151.134L187.558 150.85L187.59 150.529L187.652 150.213L187.825 149.803L188.079 149.376L188.625 148.699L188.885 148.427L189.136 148.239L189.612 148.077L189.896 148.036L190.534 148.107L190.843 148.209L191.348 148.476L191.798 148.793L192.455 149.051L193.79 147.084L193.908 146.825L194.059 146.379L194.016 146.127L193.908 145.877L193.765 145.64L193.669 145.328L193.748 145.086L193.952 144.868Z"/>
</mask>
<path d="M193.952 144.868L194.737 143.694L196 140.186L192.929 138.291L192.619 137.962L192.31 137.526L192.43 137.302L192.587 137.097L192.959 136.73L193.165 136.578L193.347 136.369L193.47 136.129V135.749L193.321 135.54L193.095 135.384L192.485 135.313L191.909 135.388L191.53 135.38L191.082 135.292L190.297 134.914L189.943 134.632L189.697 134.391L189.587 134.192L189.484 133.968L189.437 133.696L189.422 133.408L189.437 133.053L189.422 132.658L189.303 132.137L189.145 131.853L188.972 131.663L187.763 130.629L187.573 130.195L187.541 129.83L187.643 129.516L187.936 129.022L188.499 128.258L188.563 128.191L188.657 128.117L188.806 128.046L188.964 128.027L190.028 128.213L190.107 128.217L190.141 128.209L190.352 128.059L190.487 127.873L190.589 127.602L190.644 127.303L190.708 126.215L190.574 125.083L190.361 124.622L190.062 124.37L187.904 124.391L187.281 124.31L186.98 124.22L186.571 123.864L186.074 123.285L184.28 120.8L183.625 120.324L182.156 118.906L181.603 118.515L181.153 118.307L180.01 118.461L178.973 118.797L178.752 118.916L178.57 119.087L178.468 119.322L178.43 119.615L178.421 119.918L178.389 120.202L178.293 120.452L177.988 120.839L177.901 121.074L177.884 121.354L177.922 121.623L177.948 121.879L177.892 122.112L177.741 122.264L177.291 122.492L177.079 122.642L176.922 122.866L176.785 123.133L176.478 123.592L176.312 123.799L176.113 123.973L175.862 124.067L175.569 124.105L173.539 123.913L173.232 123.936L172.963 124L172.726 124.118L172.528 124.278L172.165 124.663L171.835 125.092L171.645 125.271L171.402 125.378L170.822 125.459L170.561 125.534L170.357 125.684L170.167 125.88L169.678 126.532L169.489 126.713L169.243 126.816L168.951 126.844L168.279 126.797L167.996 126.829L167.759 126.94L167.362 127.284L167.143 127.416L166.891 127.497H166.59L163.495 126.792L163.297 126.797L163.054 126.841L162.832 126.952L162.625 127.123L162.12 127.745L161.582 128.209L157.587 127.211L156.551 127.1L155.881 127.126L155.619 127.311L155.288 127.444L154.727 127.553L154.382 127.44L154.096 127.294L153.614 126.938L153.196 126.811L152.635 126.779L152.304 126.692L152.029 126.566L151.839 126.386L151.673 126.19L151.522 125.976L151.404 125.75L151.325 125.485L151.334 125.158L151.404 124.419L151.357 124.037L151.172 123.609L150.897 123.447L150.528 123.404L149.523 123.428L149.201 123.304L148.941 123.142L147.471 121.644L147.311 121.437L147.177 121.213L147.139 120.929L147.171 120.602L147.328 119.954L147.471 119.741L147.659 119.653L148.179 119.67L148.427 119.604L148.625 119.45L148.781 119.224L148.917 118.968L149.146 118.393L149.231 118.077L149.271 117.75V117.447L149.128 116.594L148.86 115.515L148.687 115.031L148.467 114.552L148.164 114.123L147.446 113.36L146.279 112.382L146.2 112.262L146.121 112.051L146.153 111.378L146.089 110.968L145.884 110.771L145.601 110.692L144.777 110.66L144.091 110.515L143.784 110.308L143.626 110.045L143.649 109.756L143.72 109.457L143.822 109.158L143.862 108.87L143.807 108.564L143.404 108.167L143.182 107.825L142.992 107.469L142.837 107.02L142.572 106.804L142.28 106.687L141.981 106.691L141.745 106.796L141.523 106.932L140.923 107.422L140.687 107.539L140.149 107.676L139.543 107.725L136.786 107.451L136.161 107.484L135.672 107.689L134.907 108.396L134.504 108.477L133.911 108.436L131.494 107.768L131.232 107.838L131.027 108L130.617 108.759L130.419 108.992L130.15 109.169L129.694 109.237L129.393 109.145L129.165 108.987L128.826 108.46L128.549 108.118L127.971 107.62L127.538 107.417L127.158 107.332L125.691 107.746L125.121 107.738L124.835 107.601L124.671 107.372L124.686 107.082L124.765 106.806L124.882 106.533L125.588 105.288L126.077 104.179L126.392 103.275L126.559 102.615L126.827 100.925L126.834 100.667L126.623 100.357L126.179 99.9066L124.52 98.6184L124.061 98.345L121.305 97.309L120.794 97.0291L120.469 96.7664L120.361 96.5229L120.297 96.2516L120.265 95.9461V95.6171L120.288 95.2818L120.344 94.9378L120.659 93.5878L120.881 92.1566L120.919 91.4858L120.896 91.1761L120.864 90.877L120.738 90.3195L120.659 90.0524L120.548 89.7982L120.422 89.559L120.162 89.2172L118.921 88.0338L118.409 87.7561L118.014 87.6578L117.69 87.7155L117.257 87.6728L116.622 87.4826L116.022 86.9871L115.683 86.7799L115.415 86.6645L115.169 86.7029L114.95 86.814L114.768 87.0084L114.514 87.2199L114.224 87.3801L113.668 87.3972L113.425 87.2263L113.267 86.9871L113.203 86.7029L112.992 84.272L113.147 79.314L113.226 78.609L114.141 74.121L114.173 73.4588L114.12 72.8478L113.994 72.286L113.408 70.6711L113.329 70.2097L113.384 69.8508L113.574 69.6863L113.836 69.6115L114.824 69.6991L115.099 69.6393L115.312 69.4962L115.447 69.2868L115.485 69.0091L115.357 68.411L115.154 68.8724L114.591 69.0049L114.205 68.238L113.634 67.6057L112.987 67.1784L112.303 66.9947L111.592 67.0802L110.797 66.8324L109.662 65.1171L108.916 64.4078L108.173 64.222L106.659 64.2305L105.881 63.9272L105.202 63.3099L103.645 61.2997L103.266 60.4367L103.409 60.3555L103.835 58.6552L103.925 58.0122L103.929 57.1684L103.874 56.5254L103.729 55.985L103.424 55.4274L102.773 54.8144L100.203 53.5562L99.4843 52.7914L97.5796 50.1746L96.1527 49.1129L94.6917 48.7113L87.5702 48.9036L86.4035 49.2475L83.3151 50.8795L82.6795 50.9159L81.8626 50.3626L81.3401 50.3135L80.696 50.7706L79.8386 52.3471L79.3224 52.9153L78.4074 53.1546L73.7898 52.377L73.1478 51.4841L72.6999 50.243L71.8575 48.7712L70.9808 48.1581L69.8654 48L68.6923 48.1837L67.6877 48.6109L66.6362 49.5658L65.9153 50.6382L65.1518 51.5503L63.9744 52.0373L62.6478 52.1911L61.9589 52.5436L61.4534 53.507L60.7069 55.4958L59.9647 56.8159L58.9537 56.8287L56.7313 55.9123L55.5582 56.2862L54.2124 57.4675L54.2508 57.6042L54.5344 58.2237L54.6603 58.4159L54.8501 58.6103L55.0868 58.6594L55.3087 58.574L55.7096 58.2877L55.8845 58.245L56.0104 58.3198L56.0893 58.4437L56.1533 58.6829L56.1746 59.3174L56.0424 62.3165L55.94 63.2522L55.812 63.8866L55.3087 64.9739L54.6688 65.8668L54.0183 66.5034L52.4251 67.6997L51.4674 68.191L50.9235 68.3362L50.3007 68.3854L50.064 68.5285L50 68.8681L50.9555 72.3821L51.5015 76.5647L51.7553 77.7118L51.943 78.2373L52.0539 78.4467L52.1734 78.5813L52.3227 78.5215L52.4741 78.3377L53.4915 76.6032L53.6642 76.4216L53.8925 76.3362L54.1569 76.3832L54.7008 76.5925L55.6307 77.1949L57.2197 78.6411L57.5268 79.0576L57.6463 79.2841L57.7401 79.519L57.8361 79.7989L57.9769 80.3628L58.0792 80.6128L58.2691 80.8007L58.5293 80.9289L59.7535 81.3262L60.259 81.6296L60.4659 81.809L60.8136 82.2042L60.9394 82.4328L61.0482 82.672L61.1292 82.9348L61.1591 83.2744L61.1207 83.6504L60.9159 84.1759L60.2441 85.2333L59.9732 85.7481L59.8794 86.0984L59.826 86.4872L59.794 86.9871L59.809 87.551L59.9689 89.3881L59.9519 89.9948L59.7471 90.4989L59.5082 90.516L59.2864 90.4241L59.0966 90.2319L58.6871 89.8858L58.4269 89.7598L58.1048 89.6893L56.4988 89.7149L56.2791 89.9649L56.2386 90.4647L56.4689 91.5563L56.7526 91.9408L57.0533 92.1245L57.3391 92.1672L57.5674 92.2869L57.7401 92.4834L60.5683 96.9245L61.7989 98.3301L61.9397 98.518L62.0357 98.894L62.0677 99.4323L61.0951 105.08V105.42L61.1676 105.715L61.4193 105.918L61.6326 105.978L63.5223 105.715L64.192 105.817L64.7444 106.048L65.1155 106.418L65.2584 106.642L65.3523 106.896L65.5016 107.439L65.6743 108.573L66.3803 111.318L66.3888 111.69L66.3099 112.145L65.9942 112.884L65.749 113.253L65.5016 113.514L63.9147 114.422L63.7334 114.612L63.5841 114.845L63.1021 115.934L61.671 118.109L61.1911 119.008L60.7026 120.089L60.6301 120.394V120.726L60.8519 121.149L61.0567 121.416L61.2849 121.633L62.17 122.272L62.3108 122.522L62.3513 122.838L62.1146 123.75L61.6091 125.254L61.5067 125.476L61.3404 125.671L61.1036 125.782L60.5128 125.857L60.3315 126.06L60.3145 126.44L60.5277 127.023L60.805 127.294L61.3489 127.625L61.5067 127.824L61.6091 128.014L61.6646 128.168L61.688 128.266L61.6795 128.497L61.6262 128.89L61.1676 130.449L61.0482 130.723L60.8989 130.953L60.7176 131.139L60.4894 131.259L60.2057 131.278L59.295 131.073L59.0348 131.082L58.8364 131.214L58.7426 131.458L58.7745 131.733L58.9964 132.013L59.7685 132.483L59.9519 132.658L59.9881 132.914L59.8324 133.241L59.6725 133.5L59.4464 133.669L59.1777 133.743L58.0323 133.871L57.8979 134.104L57.9214 134.455L58.2541 135.063L58.5677 135.269L58.8769 135.324L59.1457 135.251L61.1036 134.427L61.3809 134.359L63.5457 134.277L63.8379 134.359L64.0811 134.489L64.4842 134.839L65.107 135.659L65.2264 135.886L65.3672 136.102L65.4952 136.328L65.6274 136.533L65.8108 136.903L66.1435 139.111L66.8069 140.78L66.9562 142.032L67.1929 142.465L67.4467 142.668L68.0524 142.628L68.383 142.668L68.6944 142.752L68.9141 142.91L69.0826 143.104L69.2085 143.339L69.8142 144.809L70.2557 145.642L70.4071 145.843L70.5884 146.031L70.8401 146.163L71.4245 146.37L71.6015 146.812L71.6804 147.537L71.4096 150.666L71.4757 151.578V151.905L71.4415 152.245L71.4096 153.268L71.4245 153.543L71.497 153.802L71.6015 154.056L71.7423 154.263L71.9257 154.449L72.1305 154.62L72.8386 155.043L73.0454 155.212L73.1628 155.594L73.2502 156.12V157.183L73.4635 157.611L73.5979 158.01L73.6128 158.354L73.1628 159.157L72.8322 159.501L72.5165 159.736L70.8102 160.157L70.6844 160.215L70.5329 160.313L70.39 160.537L70.2962 160.868L70.2898 161.413L70.3751 162.131L71.0704 165.062L71.0299 165.252L70.9041 165.497L70.5969 165.854L70.4306 166.185V166.687L70.5244 167.01L70.6439 167.3L73.5659 172.13L73.6597 172.38L73.7088 172.651L73.5488 173.087L73.2587 173.602L72.1219 174.856L71.7743 175.131L70.39 175.845L70.1618 176.069L69.8867 176.458L69.5625 177.223L68.7414 178.344L68.4961 178.603L68.2999 178.756L68.061 178.874L67.3038 179.145L67.0905 179.286L66.4827 179.878L66.135 180.139L64.4842 180.908L62.635 182.305L62.3897 182.386L62.1295 182.409L61.688 182.332L61.4662 182.409L61.1911 182.61L60.8434 183.155L60.5683 183.415L60.259 183.541L59.6341 183.482L59.3653 183.488L59.1222 183.574L58.7276 183.888L58.5762 184.146L58.4973 184.479L58.6487 185.161L58.798 185.535L59.0667 186.079L59.1051 186.489L59.0902 187.019L58.8919 188.049L58.7511 188.585L58.6082 189.01L58.2221 189.758L57.9449 190.196L57.5823 190.648L57.5268 190.83L57.5759 190.99L58.2541 191.104L58.8919 191.089L60.0479 190.877L60.323 190.869L60.5832 190.922L60.741 191.097L60.805 191.418L60.8199 191.828L60.773 192.458L60.709 192.885L60.5597 193.255L60.3465 193.537L59.5722 193.906L59.3035 194.145L59.1371 194.34L58.9964 195.485L61.4918 195.859L61.8458 196.019L62.2255 196.316L62.3599 196.578L62.4303 196.899L62.3748 197.441L62.281 197.8L62.1551 198.125L61.6262 199.176L61.5387 199.443L61.4747 199.742L61.4193 200.077L61.4044 200.723L61.4918 201.609L61.6091 201.957L61.7989 202.348L62.2084 202.946L62.5006 203.263L62.7928 203.48L64.8382 204.516L65.0046 204.769L65.0984 205.112L65.1155 205.693L65.0515 206.653L64.9726 206.843L64.8318 207.009L64.6655 207.146L64.4522 207.285L64.1451 207.396L63.9552 207.526L63.7974 207.721L63.7185 207.983V208.268L63.8763 208.725L65.0515 211.151L65.2264 211.707L65.2328 212.736L65.1859 213.439L65.0984 213.721L64.9641 213.96L64.7764 214.136L62.249 215.812L62.0741 216.005L61.9333 216.197L61.8139 216.396L61.7605 216.522L61.7115 216.697L61.688 216.808L61.656 217.098L61.6496 217.62L61.671 217.81L62.4772 219.32L62.6777 219.837L62.8035 220.266L62.8355 220.888L62.9763 221.228L63.2855 221.554L64.0576 221.954L64.5546 222.11L65.9942 222.343L66.2395 222.437L66.4443 222.642L66.6554 222.964L67.3507 224.49L68.2849 225.884L68.6326 226.609L68.735 227.021L68.9077 227.207L69.2148 227.361L69.9102 227.375L70.6844 227.264L71.2347 227.51L71.7188 228.595L73.7088 229.191L73.9348 229.409L74.1652 229.676L74.0649 229.885L73.8581 230.014L73.6213 230.118L73.4166 230.291L73.2971 230.569L73.359 231.09L73.5808 231.511L73.9434 231.926L74.9885 232.69L75.8246 233L78.8255 232.695L80.1222 232.752L80.4614 232.59L80.6192 232.348L80.5104 231.518L80.5168 231.233L80.5872 230.964L80.7216 230.734L80.8709 230.522L81.6067 229.819L81.9437 229.424L82.3639 228.764L82.5132 228.399L82.7648 227.574L82.895 227.314L83.0592 227.119L83.667 226.782L84.7655 225.946L85.2773 225.81L86.9687 225.771L87.4806 225.686L87.8197 225.521L88.3678 224.667L88.7774 224.225L89.093 224.092L89.4407 224.12L89.8118 224.225L91.3282 224.338L91.6204 224.425L92.1089 224.705L92.3541 224.801L92.8042 224.883L93.0175 224.748L93.0814 224.534L93.0175 224.284L92.9236 224.043L92.5589 223.398L92.465 223.206L92.4245 223.065L92.4416 222.832L92.6463 222.546L92.9791 222.232L93.7042 221.813L94.0434 221.428L94.583 220.7L94.8581 220.627L95.1503 220.664L96.2466 221.106L96.4364 221.255L96.4599 221.486L96.3895 221.736L95.8222 222.65L95.5833 223.174L95.498 223.456V223.742L95.5683 223.983L95.7432 224.169L95.9949 224.297L104.919 226.201L105.156 226.303L105.315 226.427L105.369 226.636V226.914L105.347 227.237L105.426 227.557L105.616 227.869L106.128 228.149L106.57 228.153L106.838 227.993L106.973 227.715L107.935 223.464L108.229 222.601L108.308 222.306L108.329 222.003L108.314 221.396L108.361 220.76L108.498 220.128L108.664 219.809L108.907 219.502L109.404 219.147L109.775 219.032H110.14L110.43 219.119L110.69 219.237L110.921 219.382L111.317 219.724L111.482 219.91L111.744 220.35L111.87 220.612L112.036 220.835L112.281 221.055L112.486 221.072L112.627 221.05L114.303 220.442L114.564 220.294L115.131 219.762L115.391 219.737L115.628 219.809L117.05 220.623L117.296 220.597L117.483 220.448L117.778 219.987L118.439 218.654L118.652 218.365L118.859 218.322L119.047 218.41L119.456 218.777L119.823 218.906L120.446 218.987L121.188 218.748L121.647 218.69L121.969 218.733L122.174 218.886L122.34 219.079L123.344 220.862L123.519 221.087L123.786 221.287L124.046 221.311L124.283 221.249L125.215 220.691L126.883 220.192L127.071 220.046L127.631 219.378L127.9 219.132L128.365 218.842L128.683 218.886L129.472 219.254L130.001 219.222L130.302 219.064L130.822 218.506L131.313 218.203L131.654 218.179L131.889 218.31L132.014 218.528L132.125 218.762L132.339 219.019L132.646 219.213L133.341 219.333L133.712 219.006L133.911 218.677L133.926 218.333L133.889 217.434L133.911 217.124L133.972 216.806L134.066 216.528L135.284 214.311L135.497 214.012L135.783 213.681L136.692 212.969L136.944 212.715L137.411 212.066L137.931 211.463L139.185 210.28L139.484 209.842L139.784 209.541L141.958 208.039L142.124 207.832L142.265 207.622L142.478 207.219L143.316 205.142L143.617 204.751L144.082 204.303L145.663 203.196L145.955 202.895L146.01 202.716L146.057 202.436L146.113 201.487L146.096 201.188L146.066 200.898L146.004 200.637L145.852 200.421L145.624 200.276L145.029 200.122L144.784 199.994L144.628 199.806L144.541 199.554L144.509 199.261L144.547 198.343L144.675 198.035L144.88 197.751L145.503 197.183L145.671 196.912L146.294 195.16L146.814 194.133L146.91 193.844L146.957 193.534L146.934 193.244L146.855 192.994L146.65 192.518L146.618 192.257L146.665 191.977L146.776 191.71L147.486 190.52L147.597 190.238L148.047 187.423L148.054 187.122L147.966 186.87L147.808 186.671L147.61 186.504L147.431 186.314L147.305 186.105L147.288 185.819L147.328 185.547L147.399 185.285L147.446 185.137L148.039 183.964L148.118 183.689L148.143 183.415L148.007 183.206L147.817 183.037L147.384 182.728L147.209 182.542L147.115 182.32L147.162 182.068L147.281 181.828L147.785 181.243L147.951 181.025L148.433 180.03L148.815 179.506L149.107 179.256L149.406 179.103L151.199 178.895L155.124 176.131L155.627 175.965L156.205 175.888L158.078 175.894L158.637 175.804L159.53 175.475L159.919 175.394L160.17 175.416L160.454 175.486L160.644 175.621L160.778 175.819L160.848 176.078L160.889 176.364L160.951 176.637L161.038 176.889L161.149 177.114L161.284 177.33L161.465 177.513L161.67 177.684L161.842 177.876L161.945 178.116L162.002 178.385L162.056 178.977L162.126 179.237L162.246 179.451L162.621 179.874L162.887 180.273L163.054 180.472L163.314 180.604L163.455 180.581L163.583 180.444L163.668 180.177L163.802 179.483L163.937 179.094L164.197 178.667L164.457 178.519L164.717 178.556L164.924 178.705L165.118 178.883L165.389 179.047L165.76 179.139L166.426 179.109L166.797 178.987L167.079 178.818L167.23 178.603L167.356 178.336L167.45 178.026L167.578 177.364L167.639 176.84L167.701 176.575L167.87 176.221L168.107 176.086L168.384 176.063L168.621 176.18L168.787 176.377L168.866 176.629L168.898 176.917L168.834 178.519L168.872 178.797L169 179.021L169.228 179.177L174.027 180.081L174.33 180.017L174.497 179.936L174.74 179.526L175.239 178.447L175.789 177.535L176.689 176.612L176.843 176.392L176.928 176.114L176.958 175.819L176.896 174.969L176.952 174.704L177.071 174.469L178.363 172.76L178.863 171.692L179.082 171.122L179.21 170.455L179.234 169.81L179.219 169.206L179.14 168.637L179.082 168.379L179.035 168.114L179.074 167.866L179.249 167.529L179.47 167.343L179.724 167.211L181.689 166.6L182.115 166.375L182.403 166.119L182.469 165.837L182.497 165.54L182.358 165.015L182.013 164.017L181.904 163.47L181.817 162.893L181.793 162.27L181.759 161.977L181.697 161.714L181.317 160.723L181.264 160.456L181.462 160.059L181.895 159.597L183.484 158.384L183.83 158.044L184.075 157.502L184.335 156.769L184.557 156.31L184.768 156.261L185.274 156.464L185.641 156.528L186.255 156.438L186.594 156.29L186.88 156.122L187.966 154.994L188.283 154.564L188.563 154.067L188.665 153.789L188.695 153.492L188.68 153.197L188.61 152.932L188.49 152.7L188.2 152.283L188.023 152.089L187.754 151.7L187.669 151.523L187.611 151.367L187.573 151.134L187.558 150.85L187.59 150.529L187.652 150.213L187.825 149.803L188.079 149.376L188.625 148.699L188.885 148.427L189.136 148.239L189.612 148.077L189.896 148.036L190.534 148.107L190.843 148.209L191.348 148.476L191.798 148.793L192.455 149.051L193.79 147.084L193.908 146.825L194.059 146.379L194.016 146.127L193.908 145.877L193.765 145.64L193.669 145.328L193.748 145.086L193.952 144.868Z" fill="white" style="mix-blend-mode:screen"/>
<path d="M193.952 144.868L194.737 143.694L196 140.186L192.929 138.291L192.619 137.962L192.31 137.526L192.43 137.302L192.587 137.097L192.959 136.73L193.165 136.578L193.347 136.369L193.47 136.129V135.749L193.321 135.54L193.095 135.384L192.485 135.313L191.909 135.388L191.53 135.38L191.082 135.292L190.297 134.914L189.943 134.632L189.697 134.391L189.587 134.192L189.484 133.968L189.437 133.696L189.422 133.408L189.437 133.053L189.422 132.658L189.303 132.137L189.145 131.853L188.972 131.663L187.763 130.629L187.573 130.195L187.541 129.83L187.643 129.516L187.936 129.022L188.499 128.258L188.563 128.191L188.657 128.117L188.806 128.046L188.964 128.027L190.028 128.213L190.107 128.217L190.141 128.209L190.352 128.059L190.487 127.873L190.589 127.602L190.644 127.303L190.708 126.215L190.574 125.083L190.361 124.622L190.062 124.37L187.904 124.391L187.281 124.31L186.98 124.22L186.571 123.864L186.074 123.285L184.28 120.8L183.625 120.324L182.156 118.906L181.603 118.515L181.153 118.307L180.01 118.461L178.973 118.797L178.752 118.916L178.57 119.087L178.468 119.322L178.43 119.615L178.421 119.918L178.389 120.202L178.293 120.452L177.988 120.839L177.901 121.074L177.884 121.354L177.922 121.623L177.948 121.879L177.892 122.112L177.741 122.264L177.291 122.492L177.079 122.642L176.922 122.866L176.785 123.133L176.478 123.592L176.312 123.799L176.113 123.973L175.862 124.067L175.569 124.105L173.539 123.913L173.232 123.936L172.963 124L172.726 124.118L172.528 124.278L172.165 124.663L171.835 125.092L171.645 125.271L171.402 125.378L170.822 125.459L170.561 125.534L170.357 125.684L170.167 125.88L169.678 126.532L169.489 126.713L169.243 126.816L168.951 126.844L168.279 126.797L167.996 126.829L167.759 126.94L167.362 127.284L167.143 127.416L166.891 127.497H166.59L163.495 126.792L163.297 126.797L163.054 126.841L162.832 126.952L162.625 127.123L162.12 127.745L161.582 128.209L157.587 127.211L156.551 127.1L155.881 127.126L155.619 127.311L155.288 127.444L154.727 127.553L154.382 127.44L154.096 127.294L153.614 126.938L153.196 126.811L152.635 126.779L152.304 126.692L152.029 126.566L151.839 126.386L151.673 126.19L151.522 125.976L151.404 125.75L151.325 125.485L151.334 125.158L151.404 124.419L151.357 124.037L151.172 123.609L150.897 123.447L150.528 123.404L149.523 123.428L149.201 123.304L148.941 123.142L147.471 121.644L147.311 121.437L147.177 121.213L147.139 120.929L147.171 120.602L147.328 119.954L147.471 119.741L147.659 119.653L148.179 119.67L148.427 119.604L148.625 119.45L148.781 119.224L148.917 118.968L149.146 118.393L149.231 118.077L149.271 117.75V117.447L149.128 116.594L148.86 115.515L148.687 115.031L148.467 114.552L148.164 114.123L147.446 113.36L146.279 112.382L146.2 112.262L146.121 112.051L146.153 111.378L146.089 110.968L145.884 110.771L145.601 110.692L144.777 110.66L144.091 110.515L143.784 110.308L143.626 110.045L143.649 109.756L143.72 109.457L143.822 109.158L143.862 108.87L143.807 108.564L143.404 108.167L143.182 107.825L142.992 107.469L142.837 107.02L142.572 106.804L142.28 106.687L141.981 106.691L141.745 106.796L141.523 106.932L140.923 107.422L140.687 107.539L140.149 107.676L139.543 107.725L136.786 107.451L136.161 107.484L135.672 107.689L134.907 108.396L134.504 108.477L133.911 108.436L131.494 107.768L131.232 107.838L131.027 108L130.617 108.759L130.419 108.992L130.15 109.169L129.694 109.237L129.393 109.145L129.165 108.987L128.826 108.46L128.549 108.118L127.971 107.62L127.538 107.417L127.158 107.332L125.691 107.746L125.121 107.738L124.835 107.601L124.671 107.372L124.686 107.082L124.765 106.806L124.882 106.533L125.588 105.288L126.077 104.179L126.392 103.275L126.559 102.615L126.827 100.925L126.834 100.667L126.623 100.357L126.179 99.9066L124.52 98.6184L124.061 98.345L121.305 97.309L120.794 97.0291L120.469 96.7664L120.361 96.5229L120.297 96.2516L120.265 95.9461V95.6171L120.288 95.2818L120.344 94.9378L120.659 93.5878L120.881 92.1566L120.919 91.4858L120.896 91.1761L120.864 90.877L120.738 90.3195L120.659 90.0524L120.548 89.7982L120.422 89.559L120.162 89.2172L118.921 88.0338L118.409 87.7561L118.014 87.6578L117.69 87.7155L117.257 87.6728L116.622 87.4826L116.022 86.9871L115.683 86.7799L115.415 86.6645L115.169 86.7029L114.95 86.814L114.768 87.0084L114.514 87.2199L114.224 87.3801L113.668 87.3972L113.425 87.2263L113.267 86.9871L113.203 86.7029L112.992 84.272L113.147 79.314L113.226 78.609L114.141 74.121L114.173 73.4588L114.12 72.8478L113.994 72.286L113.408 70.6711L113.329 70.2097L113.384 69.8508L113.574 69.6863L113.836 69.6115L114.824 69.6991L115.099 69.6393L115.312 69.4962L115.447 69.2868L115.485 69.0091L115.357 68.411L115.154 68.8724L114.591 69.0049L114.205 68.238L113.634 67.6057L112.987 67.1784L112.303 66.9947L111.592 67.0802L110.797 66.8324L109.662 65.1171L108.916 64.4078L108.173 64.222L106.659 64.2305L105.881 63.9272L105.202 63.3099L103.645 61.2997L103.266 60.4367L103.409 60.3555L103.835 58.6552L103.925 58.0122L103.929 57.1684L103.874 56.5254L103.729 55.985L103.424 55.4274L102.773 54.8144L100.203 53.5562L99.4843 52.7914L97.5796 50.1746L96.1527 49.1129L94.6917 48.7113L87.5702 48.9036L86.4035 49.2475L83.3151 50.8795L82.6795 50.9159L81.8626 50.3626L81.3401 50.3135L80.696 50.7706L79.8386 52.3471L79.3224 52.9153L78.4074 53.1546L73.7898 52.377L73.1478 51.4841L72.6999 50.243L71.8575 48.7712L70.9808 48.1581L69.8654 48L68.6923 48.1837L67.6877 48.6109L66.6362 49.5658L65.9153 50.6382L65.1518 51.5503L63.9744 52.0373L62.6478 52.1911L61.9589 52.5436L61.4534 53.507L60.7069 55.4958L59.9647 56.8159L58.9537 56.8287L56.7313 55.9123L55.5582 56.2862L54.2124 57.4675L54.2508 57.6042L54.5344 58.2237L54.6603 58.4159L54.8501 58.6103L55.0868 58.6594L55.3087 58.574L55.7096 58.2877L55.8845 58.245L56.0104 58.3198L56.0893 58.4437L56.1533 58.6829L56.1746 59.3174L56.0424 62.3165L55.94 63.2522L55.812 63.8866L55.3087 64.9739L54.6688 65.8668L54.0183 66.5034L52.4251 67.6997L51.4674 68.191L50.9235 68.3362L50.3007 68.3854L50.064 68.5285L50 68.8681L50.9555 72.3821L51.5015 76.5647L51.7553 77.7118L51.943 78.2373L52.0539 78.4467L52.1734 78.5813L52.3227 78.5215L52.4741 78.3377L53.4915 76.6032L53.6642 76.4216L53.8925 76.3362L54.1569 76.3832L54.7008 76.5925L55.6307 77.1949L57.2197 78.6411L57.5268 79.0576L57.6463 79.2841L57.7401 79.519L57.8361 79.7989L57.9769 80.3628L58.0792 80.6128L58.2691 80.8007L58.5293 80.9289L59.7535 81.3262L60.259 81.6296L60.4659 81.809L60.8136 82.2042L60.9394 82.4328L61.0482 82.672L61.1292 82.9348L61.1591 83.2744L61.1207 83.6504L60.9159 84.1759L60.2441 85.2333L59.9732 85.7481L59.8794 86.0984L59.826 86.4872L59.794 86.9871L59.809 87.551L59.9689 89.3881L59.9519 89.9948L59.7471 90.4989L59.5082 90.516L59.2864 90.4241L59.0966 90.2319L58.6871 89.8858L58.4269 89.7598L58.1048 89.6893L56.4988 89.7149L56.2791 89.9649L56.2386 90.4647L56.4689 91.5563L56.7526 91.9408L57.0533 92.1245L57.3391 92.1672L57.5674 92.2869L57.7401 92.4834L60.5683 96.9245L61.7989 98.3301L61.9397 98.518L62.0357 98.894L62.0677 99.4323L61.0951 105.08V105.42L61.1676 105.715L61.4193 105.918L61.6326 105.978L63.5223 105.715L64.192 105.817L64.7444 106.048L65.1155 106.418L65.2584 106.642L65.3523 106.896L65.5016 107.439L65.6743 108.573L66.3803 111.318L66.3888 111.69L66.3099 112.145L65.9942 112.884L65.749 113.253L65.5016 113.514L63.9147 114.422L63.7334 114.612L63.5841 114.845L63.1021 115.934L61.671 118.109L61.1911 119.008L60.7026 120.089L60.6301 120.394V120.726L60.8519 121.149L61.0567 121.416L61.2849 121.633L62.17 122.272L62.3108 122.522L62.3513 122.838L62.1146 123.75L61.6091 125.254L61.5067 125.476L61.3404 125.671L61.1036 125.782L60.5128 125.857L60.3315 126.06L60.3145 126.44L60.5277 127.023L60.805 127.294L61.3489 127.625L61.5067 127.824L61.6091 128.014L61.6646 128.168L61.688 128.266L61.6795 128.497L61.6262 128.89L61.1676 130.449L61.0482 130.723L60.8989 130.953L60.7176 131.139L60.4894 131.259L60.2057 131.278L59.295 131.073L59.0348 131.082L58.8364 131.214L58.7426 131.458L58.7745 131.733L58.9964 132.013L59.7685 132.483L59.9519 132.658L59.9881 132.914L59.8324 133.241L59.6725 133.5L59.4464 133.669L59.1777 133.743L58.0323 133.871L57.8979 134.104L57.9214 134.455L58.2541 135.063L58.5677 135.269L58.8769 135.324L59.1457 135.251L61.1036 134.427L61.3809 134.359L63.5457 134.277L63.8379 134.359L64.0811 134.489L64.4842 134.839L65.107 135.659L65.2264 135.886L65.3672 136.102L65.4952 136.328L65.6274 136.533L65.8108 136.903L66.1435 139.111L66.8069 140.78L66.9562 142.032L67.1929 142.465L67.4467 142.668L68.0524 142.628L68.383 142.668L68.6944 142.752L68.9141 142.91L69.0826 143.104L69.2085 143.339L69.8142 144.809L70.2557 145.642L70.4071 145.843L70.5884 146.031L70.8401 146.163L71.4245 146.37L71.6015 146.812L71.6804 147.537L71.4096 150.666L71.4757 151.578V151.905L71.4415 152.245L71.4096 153.268L71.4245 153.543L71.497 153.802L71.6015 154.056L71.7423 154.263L71.9257 154.449L72.1305 154.62L72.8386 155.043L73.0454 155.212L73.1628 155.594L73.2502 156.12V157.183L73.4635 157.611L73.5979 158.01L73.6128 158.354L73.1628 159.157L72.8322 159.501L72.5165 159.736L70.8102 160.157L70.6844 160.215L70.5329 160.313L70.39 160.537L70.2962 160.868L70.2898 161.413L70.3751 162.131L71.0704 165.062L71.0299 165.252L70.9041 165.497L70.5969 165.854L70.4306 166.185V166.687L70.5244 167.01L70.6439 167.3L73.5659 172.13L73.6597 172.38L73.7088 172.651L73.5488 173.087L73.2587 173.602L72.1219 174.856L71.7743 175.131L70.39 175.845L70.1618 176.069L69.8867 176.458L69.5625 177.223L68.7414 178.344L68.4961 178.603L68.2999 178.756L68.061 178.874L67.3038 179.145L67.0905 179.286L66.4827 179.878L66.135 180.139L64.4842 180.908L62.635 182.305L62.3897 182.386L62.1295 182.409L61.688 182.332L61.4662 182.409L61.1911 182.61L60.8434 183.155L60.5683 183.415L60.259 183.541L59.6341 183.482L59.3653 183.488L59.1222 183.574L58.7276 183.888L58.5762 184.146L58.4973 184.479L58.6487 185.161L58.798 185.535L59.0667 186.079L59.1051 186.489L59.0902 187.019L58.8919 188.049L58.7511 188.585L58.6082 189.01L58.2221 189.758L57.9449 190.196L57.5823 190.648L57.5268 190.83L57.5759 190.99L58.2541 191.104L58.8919 191.089L60.0479 190.877L60.323 190.869L60.5832 190.922L60.741 191.097L60.805 191.418L60.8199 191.828L60.773 192.458L60.709 192.885L60.5597 193.255L60.3465 193.537L59.5722 193.906L59.3035 194.145L59.1371 194.34L58.9964 195.485L61.4918 195.859L61.8458 196.019L62.2255 196.316L62.3599 196.578L62.4303 196.899L62.3748 197.441L62.281 197.8L62.1551 198.125L61.6262 199.176L61.5387 199.443L61.4747 199.742L61.4193 200.077L61.4044 200.723L61.4918 201.609L61.6091 201.957L61.7989 202.348L62.2084 202.946L62.5006 203.263L62.7928 203.48L64.8382 204.516L65.0046 204.769L65.0984 205.112L65.1155 205.693L65.0515 206.653L64.9726 206.843L64.8318 207.009L64.6655 207.146L64.4522 207.285L64.1451 207.396L63.9552 207.526L63.7974 207.721L63.7185 207.983V208.268L63.8763 208.725L65.0515 211.151L65.2264 211.707L65.2328 212.736L65.1859 213.439L65.0984 213.721L64.9641 213.96L64.7764 214.136L62.249 215.812L62.0741 216.005L61.9333 216.197L61.8139 216.396L61.7605 216.522L61.7115 216.697L61.688 216.808L61.656 217.098L61.6496 217.62L61.671 217.81L62.4772 219.32L62.6777 219.837L62.8035 220.266L62.8355 220.888L62.9763 221.228L63.2855 221.554L64.0576 221.954L64.5546 222.11L65.9942 222.343L66.2395 222.437L66.4443 222.642L66.6554 222.964L67.3507 224.49L68.2849 225.884L68.6326 226.609L68.735 227.021L68.9077 227.207L69.2148 227.361L69.9102 227.375L70.6844 227.264L71.2347 227.51L71.7188 228.595L73.7088 229.191L73.9348 229.409L74.1652 229.676L74.0649 229.885L73.8581 230.014L73.6213 230.118L73.4166 230.291L73.2971 230.569L73.359 231.09L73.5808 231.511L73.9434 231.926L74.9885 232.69L75.8246 233L78.8255 232.695L80.1222 232.752L80.4614 232.59L80.6192 232.348L80.5104 231.518L80.5168 231.233L80.5872 230.964L80.7216 230.734L80.8709 230.522L81.6067 229.819L81.9437 229.424L82.3639 228.764L82.5132 228.399L82.7648 227.574L82.895 227.314L83.0592 227.119L83.667 226.782L84.7655 225.946L85.2773 225.81L86.9687 225.771L87.4806 225.686L87.8197 225.521L88.3678 224.667L88.7774 224.225L89.093 224.092L89.4407 224.12L89.8118 224.225L91.3282 224.338L91.6204 224.425L92.1089 224.705L92.3541 224.801L92.8042 224.883L93.0175 224.748L93.0814 224.534L93.0175 224.284L92.9236 224.043L92.5589 223.398L92.465 223.206L92.4245 223.065L92.4416 222.832L92.6463 222.546L92.9791 222.232L93.7042 221.813L94.0434 221.428L94.583 220.7L94.8581 220.627L95.1503 220.664L96.2466 221.106L96.4364 221.255L96.4599 221.486L96.3895 221.736L95.8222 222.65L95.5833 223.174L95.498 223.456V223.742L95.5683 223.983L95.7432 224.169L95.9949 224.297L104.919 226.201L105.156 226.303L105.315 226.427L105.369 226.636V226.914L105.347 227.237L105.426 227.557L105.616 227.869L106.128 228.149L106.57 228.153L106.838 227.993L106.973 227.715L107.935 223.464L108.229 222.601L108.308 222.306L108.329 222.003L108.314 221.396L108.361 220.76L108.498 220.128L108.664 219.809L108.907 219.502L109.404 219.147L109.775 219.032H110.14L110.43 219.119L110.69 219.237L110.921 219.382L111.317 219.724L111.482 219.91L111.744 220.35L111.87 220.612L112.036 220.835L112.281 221.055L112.486 221.072L112.627 221.05L114.303 220.442L114.564 220.294L115.131 219.762L115.391 219.737L115.628 219.809L117.05 220.623L117.296 220.597L117.483 220.448L117.778 219.987L118.439 218.654L118.652 218.365L118.859 218.322L119.047 218.41L119.456 218.777L119.823 218.906L120.446 218.987L121.188 218.748L121.647 218.69L121.969 218.733L122.174 218.886L122.34 219.079L123.344 220.862L123.519 221.087L123.786 221.287L124.046 221.311L124.283 221.249L125.215 220.691L126.883 220.192L127.071 220.046L127.631 219.378L127.9 219.132L128.365 218.842L128.683 218.886L129.472 219.254L130.001 219.222L130.302 219.064L130.822 218.506L131.313 218.203L131.654 218.179L131.889 218.31L132.014 218.528L132.125 218.762L132.339 219.019L132.646 219.213L133.341 219.333L133.712 219.006L133.911 218.677L133.926 218.333L133.889 217.434L133.911 217.124L133.972 216.806L134.066 216.528L135.284 214.311L135.497 214.012L135.783 213.681L136.692 212.969L136.944 212.715L137.411 212.066L137.931 211.463L139.185 210.28L139.484 209.842L139.784 209.541L141.958 208.039L142.124 207.832L142.265 207.622L142.478 207.219L143.316 205.142L143.617 204.751L144.082 204.303L145.663 203.196L145.955 202.895L146.01 202.716L146.057 202.436L146.113 201.487L146.096 201.188L146.066 200.898L146.004 200.637L145.852 200.421L145.624 200.276L145.029 200.122L144.784 199.994L144.628 199.806L144.541 199.554L144.509 199.261L144.547 198.343L144.675 198.035L144.88 197.751L145.503 197.183L145.671 196.912L146.294 195.16L146.814 194.133L146.91 193.844L146.957 193.534L146.934 193.244L146.855 192.994L146.65 192.518L146.618 192.257L146.665 191.977L146.776 191.71L147.486 190.52L147.597 190.238L148.047 187.423L148.054 187.122L147.966 186.87L147.808 186.671L147.61 186.504L147.431 186.314L147.305 186.105L147.288 185.819L147.328 185.547L147.399 185.285L147.446 185.137L148.039 183.964L148.118 183.689L148.143 183.415L148.007 183.206L147.817 183.037L147.384 182.728L147.209 182.542L147.115 182.32L147.162 182.068L147.281 181.828L147.785 181.243L147.951 181.025L148.433 180.03L148.815 179.506L149.107 179.256L149.406 179.103L151.199 178.895L155.124 176.131L155.627 175.965L156.205 175.888L158.078 175.894L158.637 175.804L159.53 175.475L159.919 175.394L160.17 175.416L160.454 175.486L160.644 175.621L160.778 175.819L160.848 176.078L160.889 176.364L160.951 176.637L161.038 176.889L161.149 177.114L161.284 177.33L161.465 177.513L161.67 177.684L161.842 177.876L161.945 178.116L162.002 178.385L162.056 178.977L162.126 179.237L162.246 179.451L162.621 179.874L162.887 180.273L163.054 180.472L163.314 180.604L163.455 180.581L163.583 180.444L163.668 180.177L163.802 179.483L163.937 179.094L164.197 178.667L164.457 178.519L164.717 178.556L164.924 178.705L165.118 178.883L165.389 179.047L165.76 179.139L166.426 179.109L166.797 178.987L167.079 178.818L167.23 178.603L167.356 178.336L167.45 178.026L167.578 177.364L167.639 176.84L167.701 176.575L167.87 176.221L168.107 176.086L168.384 176.063L168.621 176.18L168.787 176.377L168.866 176.629L168.898 176.917L168.834 178.519L168.872 178.797L169 179.021L169.228 179.177L174.027 180.081L174.33 180.017L174.497 179.936L174.74 179.526L175.239 178.447L175.789 177.535L176.689 176.612L176.843 176.392L176.928 176.114L176.958 175.819L176.896 174.969L176.952 174.704L177.071 174.469L178.363 172.76L178.863 171.692L179.082 171.122L179.21 170.455L179.234 169.81L179.219 169.206L179.14 168.637L179.082 168.379L179.035 168.114L179.074 167.866L179.249 167.529L179.47 167.343L179.724 167.211L181.689 166.6L182.115 166.375L182.403 166.119L182.469 165.837L182.497 165.54L182.358 165.015L182.013 164.017L181.904 163.47L181.817 162.893L181.793 162.27L181.759 161.977L181.697 161.714L181.317 160.723L181.264 160.456L181.462 160.059L181.895 159.597L183.484 158.384L183.83 158.044L184.075 157.502L184.335 156.769L184.557 156.31L184.768 156.261L185.274 156.464L185.641 156.528L186.255 156.438L186.594 156.29L186.88 156.122L187.966 154.994L188.283 154.564L188.563 154.067L188.665 153.789L188.695 153.492L188.68 153.197L188.61 152.932L188.49 152.7L188.2 152.283L188.023 152.089L187.754 151.7L187.669 151.523L187.611 151.367L187.573 151.134L187.558 150.85L187.59 150.529L187.652 150.213L187.825 149.803L188.079 149.376L188.625 148.699L188.885 148.427L189.136 148.239L189.612 148.077L189.896 148.036L190.534 148.107L190.843 148.209L191.348 148.476L191.798 148.793L192.455 149.051L193.79 147.084L193.908 146.825L194.059 146.379L194.016 146.127L193.908 145.877L193.765 145.64L193.669 145.328L193.748 145.086L193.952 144.868Z" stroke="white" stroke-width="6" mask="url(#path-1-inside-1_0_232)"/>
</g>
<defs>
<filter id="filter0_d_0_232" x="0" y="0" width="246" height="285" filterUnits="userSpaceOnUse" color-interpolation-filters="sRGB">
<feFlood flood-opacity="0" result="BackgroundImageFix"/>
<feColorMatrix in="SourceAlpha" type="matrix" values="0 0 0 0 0 0 0 0 0 0 0 0 0 0 0 0 0 0 127 0" result="hardAlpha"/>
<feOffset dy="2"/>
<feGaussianBlur stdDeviation="25"/>
<feColorMatrix type="matrix" values="0 0 0 0 0 0 0 0 0 0 0 0 0 0 0 0 0 0 0.2 0"/>
<feBlend mode="normal" in2="BackgroundImageFix" result="effect1_dropShadow_0_232"/>
<feBlend mode="normal" in="SourceGraphic" in2="effect1_dropShadow_0_232" result="shape"/>
</filter>
</defs>
</svg>
