<svg width="127" height="40" viewBox="0 0 127 40" fill="none" xmlns="http://www.w3.org/2000/svg">
<path fill-rule="evenodd" clip-rule="evenodd" d="M13 0C20.1683 0 26 5.88776 26 13.125C26 14.6106 25.754 16.0388 25.3015 17.3712C25.309 17.5409 25.2812 17.7145 25.2108 17.8812L18.2571 34.5218C18.2011 34.6545 18.1232 34.7714 18.0298 34.8703V38.8281C18.0298 39.4754 17.5102 40 16.869 40H9.13095C8.49014 40 7.97024 39.4754 7.97024 38.8281V34.8703C7.87714 34.7714 7.79915 34.6545 7.74323 34.5218L0.789225 17.8812C0.719099 17.7145 0.69129 17.5409 0.698545 17.3715C0.246047 16.0388 0 14.6106 0 13.125C0 5.88776 5.83168 0 13 0ZM17.661 22.8238C21.2199 21.073 23.6786 17.3837 23.6786 13.125C23.6786 8.86627 21.2199 5.177 17.661 3.42621C17.7925 3.66241 17.9194 3.90961 18.0419 4.1684C19.1817 6.5802 19.8095 9.76105 19.8095 13.125C19.8095 16.489 19.1817 19.6698 18.0419 22.0816C17.9197 22.3404 17.7925 22.5876 17.661 22.8238ZM10.0532 21.0724C9.05931 18.9691 8.5119 16.1469 8.5119 13.125C8.5119 10.1031 9.05931 7.28088 10.0532 5.17761C10.9044 3.37677 11.9783 2.34375 13 2.34375C14.0217 2.34375 15.0956 3.37677 15.9468 5.17761C16.9407 7.28088 17.4881 10.1031 17.4881 13.125C17.4881 16.1469 16.9407 18.9691 15.9468 21.0724C15.0956 22.8732 14.0217 23.9062 13 23.9062C11.9783 23.9062 10.9044 22.8732 10.0532 21.0724ZM7.95815 4.1684C8.08026 3.90961 8.20752 3.66241 8.33901 3.42621C4.78009 5.177 2.32143 8.86627 2.32143 13.125C2.32143 17.3837 4.78009 21.073 8.33901 22.8238C8.20752 22.5876 8.08026 22.3404 7.95815 22.0816C6.81829 19.6698 6.19048 16.489 6.19048 13.125C6.19048 9.76105 6.81829 6.5802 7.95815 4.1684ZM10.2917 37.6562V35.3125H15.7083V37.6562H10.2917ZM9.61096 32.9688H16.3887L20.042 24.1528C18.0113 25.4791 15.5932 26.25 13 26.25C10.4068 26.25 7.98868 25.4791 5.95803 24.1528L9.61096 32.9688Z" fill="black"/>
<path d="M35.116 19V6.4H41.578C43.114 6.4 44.26 6.778 45.016 7.534C45.556 8.074 45.826 8.764 45.826 9.604C45.826 10.912 45.178 11.848 43.882 12.412C44.698 12.676 45.316 13.054 45.736 13.546C46.168 14.038 46.384 14.698 46.384 15.526C46.384 16.606 45.964 17.458 45.124 18.082C44.284 18.694 43.114 19 41.614 19H35.116ZM38.518 16.192H41.218C42.334 16.192 42.892 15.796 42.892 15.004C42.892 14.248 42.322 13.87 41.182 13.87H38.518V16.192ZM38.518 11.422H40.714C41.818 11.422 42.37 11.044 42.37 10.288C42.37 9.568 41.842 9.208 40.786 9.208H38.518V11.422ZM46.9752 19L52.3392 6.31H55.7052L61.0692 19H57.3252L56.4072 16.75H51.5472L50.6472 19H46.9752ZM52.5732 14.032H55.3992L53.9952 10.45L52.5732 14.032ZM62.2918 19V6.4H65.7838V15.94H71.8858V19H62.2918ZM73.3836 19V6.4H76.8756V15.94H82.9776V19H73.3836ZM94.9327 17.344C93.6367 18.616 92.0227 19.252 90.0907 19.252C88.1587 19.252 86.5447 18.622 85.2487 17.362C83.9647 16.09 83.3227 14.536 83.3227 12.7C83.3227 10.876 83.9707 9.328 85.2667 8.056C86.5747 6.784 88.1947 6.148 90.1267 6.148C92.0587 6.148 93.6667 6.784 94.9507 8.056C96.2467 9.316 96.8947 10.864 96.8947 12.7C96.8947 14.524 96.2407 16.072 94.9327 17.344ZM90.1267 16.102C91.0747 16.102 91.8427 15.772 92.4307 15.112C93.0307 14.452 93.3307 13.648 93.3307 12.7C93.3307 11.764 93.0247 10.966 92.4127 10.306C91.8007 9.634 91.0267 9.298 90.0907 9.298C89.1547 9.298 88.3867 9.628 87.7867 10.288C87.1987 10.948 86.9047 11.752 86.9047 12.7C86.9047 13.636 87.2047 14.44 87.8047 15.112C88.4167 15.772 89.1907 16.102 90.1267 16.102ZM109.892 17.344C108.596 18.616 106.982 19.252 105.05 19.252C103.118 19.252 101.504 18.622 100.208 17.362C98.9237 16.09 98.2817 14.536 98.2817 12.7C98.2817 10.876 98.9297 9.328 100.226 8.056C101.534 6.784 103.154 6.148 105.086 6.148C107.018 6.148 108.626 6.784 109.91 8.056C111.206 9.316 111.854 10.864 111.854 12.7C111.854 14.524 111.2 16.072 109.892 17.344ZM105.086 16.102C106.034 16.102 106.802 15.772 107.39 15.112C107.99 14.452 108.29 13.648 108.29 12.7C108.29 11.764 107.984 10.966 107.372 10.306C106.76 9.634 105.986 9.298 105.05 9.298C104.114 9.298 103.346 9.628 102.746 10.288C102.158 10.948 101.864 11.752 101.864 12.7C101.864 13.636 102.164 14.44 102.764 15.112C103.376 15.772 104.15 16.102 105.086 16.102ZM113.673 19V6.4H116.931L122.115 13.06V6.4H125.571V19H122.511L117.129 12.088V19H113.673ZM35.116 36V23.4H45.196V26.46H38.608V28.602H44.566V31.5H38.608V36H35.116ZM46.7879 36V23.4H50.2799V32.94H56.3819V36H46.7879ZM57.9517 36V23.4H61.4617V36H57.9517ZM70.1943 36.252C68.2143 36.252 66.5763 35.64 65.2803 34.416C63.9843 33.18 63.3363 31.608 63.3363 29.7C63.3363 27.852 63.9783 26.298 65.2623 25.038C66.5583 23.778 68.1783 23.148 70.1223 23.148C72.1143 23.148 73.8183 23.76 75.2343 24.984L73.1823 27.45C72.2343 26.658 71.2203 26.262 70.1403 26.262C69.2283 26.262 68.4603 26.598 67.8363 27.27C67.2243 27.942 66.9183 28.77 66.9183 29.754C66.9183 30.774 67.2363 31.614 67.8723 32.274C68.5203 32.922 69.3423 33.246 70.3383 33.246C71.1543 33.246 71.8263 33.072 72.3543 32.724V31.194H69.8703V28.638H75.6663V34.308C74.0943 35.604 72.2703 36.252 70.1943 36.252ZM77.6023 36V23.4H81.0943V28.116H85.5763V23.4H89.0683V36H85.5763V31.212H81.0943V36H77.6023ZM94.3737 36V26.46H90.5937V23.4H101.646V26.46H97.8657V36H94.3737ZM107.865 36.216C105.489 36.216 103.521 35.52 101.961 34.128L103.905 31.806C105.165 32.814 106.527 33.318 107.991 33.318C108.951 33.318 109.431 33.018 109.431 32.418C109.431 32.154 109.287 31.938 108.999 31.77C108.711 31.59 108.147 31.404 107.307 31.212C106.539 31.032 105.903 30.858 105.399 30.69C104.907 30.51 104.421 30.276 103.941 29.988C103.473 29.688 103.125 29.31 102.897 28.854C102.669 28.398 102.555 27.852 102.555 27.216C102.555 26.028 102.993 25.062 103.869 24.318C104.757 23.562 105.945 23.184 107.433 23.184C109.497 23.184 111.225 23.742 112.617 24.858L110.871 27.324C109.695 26.496 108.519 26.082 107.343 26.082C106.935 26.082 106.623 26.16 106.407 26.316C106.191 26.472 106.083 26.676 106.083 26.928C106.083 27.216 106.227 27.444 106.515 27.612C106.815 27.78 107.397 27.96 108.261 28.152C109.845 28.5 111.021 28.968 111.789 29.556C112.569 30.132 112.959 30.984 112.959 32.112C112.959 33.384 112.497 34.386 111.573 35.118C110.649 35.85 109.413 36.216 107.865 36.216Z" fill="black"/>
</svg>
