<svg width="242" height="251" viewBox="0 0 242 251" fill="none" xmlns="http://www.w3.org/2000/svg">
<g filter="url(#filter0_d_0_236)">
<mask id="path-1-inside-1_0_236" fill="white">
<path d="M191.985 103.656L191.921 103.383L191.827 103.124L191.71 102.9L191.092 102.083L190.964 101.861L190.777 101.352L190.643 101.122L190.47 100.94L189.381 100.177L189.192 100.002L188.893 99.6149L188.772 99.3585L188.736 99.2281L188.64 98.8477L188.629 98.2984L184.986 96.0651L180.228 91.8142L179.764 91.203L179.369 89.1962L179.329 88.8842L179.297 88.2366L179.352 86.8752L179.747 84.9389L179.732 84.5158L179.51 84.1375L178.541 82.9535L178.353 82.4748L178.328 82.1136L178.47 81.8871L179.919 80.4167L180.243 79.9957L180.369 79.7542L180.49 79.4956L180.531 79.0361L180.505 78.4398L180.303 77.3498L180.1 76.8305L179.889 76.4821L179.676 76.3304L179.431 76.1958L178.873 76.0055L178.558 75.9607L178.249 75.9735L177.714 76.1252L176.369 76.9352L175.85 77.1083L175.236 77.1703L174.2 77.0741L173.499 76.7514L173.167 75.9393L173.278 73.6632L173.184 72.7784L173.073 72.5049L172.916 72.2398L172.673 71.9556L172.428 71.759L172.168 71.635L171.899 71.588H171.678L170.139 71.8851L169.083 71.3743L167.661 70.4019L166.967 70.0557L166.479 69.9381L166.353 70.1561L166.313 70.4403L166.4 71.3657L166.076 71.5859L165.437 71.6906L162.233 71.152L161.067 71.3871L160.547 71.573L160.081 71.8124L159.661 72.1073L159.147 72.2313L158.399 72.2975L155.898 72.0432L155.355 71.9022L155.133 71.7526L154.952 71.573L154.85 71.3294L154.803 71.0409L154.875 70.3955L154.611 69.936L154.091 69.4145L151.986 68.1258L151.605 67.7603L151.569 67.4804L151.586 67.1662L151.526 66.8328L151.345 66.4908L151.085 66.3348L150.77 66.275L149.146 66.2002L148.767 66.057L148.496 65.8582L148.262 65.3175L148.087 65.0055L147.78 64.6251L147.48 64.4862L147.196 64.4947L147.007 64.6614L146.905 64.92L146.875 65.2299L146.881 65.8647L146.866 66.1724L146.779 66.4481L146.645 66.6853L146.376 66.8948L146.014 67.0315L145.294 67.0679L144.955 66.9226L144.736 66.7088L144.68 66.4396L144.704 66.1403L144.814 65.5291L144.838 65.2214L144.791 64.9435L144.71 64.6956L144.459 64.39L142.319 62.6567L142.164 62.4559L142.045 62.2272L141.998 61.9814L142.068 61.7356L142.217 61.5369L142.422 61.3787L142.66 61.2612L145.192 60.6286L145.641 60.3657L146.014 60.0002L146.161 59.8122L146.321 59.56L146.425 59.2629L146.472 58.9787V58.6709L146.425 58.376L146.338 58.1088L146.078 57.6429L144.561 55.9268L144.295 55.728L144.064 55.619L143.513 55.4801L143.236 55.5079L142.36 55.8392L141.8 55.8712L141.461 55.7857L141.177 55.649L139.709 54.1807L139.599 53.9435L139.581 53.6571L139.645 53.3814L139.575 52.9711L139.315 52.4539L138.393 51.49L137.785 51.0327L137.329 50.789L137.08 50.7484L136.893 50.7612L136.686 50.8531L136.513 51.0177L136.349 51.2207L136.072 51.6995L135.891 51.8918L135.687 52.0521L135.442 52.1589L134.219 52.3171L133.65 52.4667L133.138 52.7488L132.263 52.9262V53.5225L131.7 53.0266L130.754 52.7317L130.179 52.4282L129.717 51.8298L129.391 51.0882L128.975 50.4535L128.253 50.1885L127.786 49.8444L127.473 48.3419L126.851 48L126.148 48.0427L125.5 48.2137L124.963 48.5642L124.599 49.137L124.611 49.169L123.435 51.2122L123.949 55.0206L124.313 56.0785L124.575 56.3029L124.513 56.4803L123.876 57.3972L122.915 58.4273L119.641 60.1456L119.498 61.1073L119.579 62.6482L119.494 63.6847L119.264 64.5482L118.149 67.1747L115.473 68.2882L106.262 68.4036L104.507 68.9614L103.631 69.4102L102.941 70.0898L102.384 71.2589L101.745 73.3768L101.711 73.488L101.008 74.5159L96.9981 78.8843L95.528 80.0769H95.5216L95.5173 80.0811H95.5109L92.7411 82.2119L90.4463 83.9986L78.8278 96.6507L77.298 99.0229L75.438 100.487L73.416 102.729L67.9039 110.837L65.7754 113.03L65.5069 113.682L65.0915 115.27L64.855 115.832L64.4139 116.274L63.5169 116.61L63.0695 116.905L62.5752 117.512L59.4431 123.203L58.5866 124.073L58.0305 124.314L56.9374 124.532L56.3685 125.024L56.0021 125.701L55.1242 128.21L51.2677 133.412L50 136.438L50.978 139.238L51.3189 140.384L51.6342 143.711L51.8238 144.6L51.9666 145.032L52.6271 146.084L53.7265 147.246L54.0099 147.842L54.2358 149.086L54.924 156.239L54.7301 157.37L53.8735 159.74L53.1534 162.497L52.3501 164.181L52.0753 165.126L52.3863 165.54L52.6228 165.382L53.2961 164.534L54.0951 165.098L54.0312 165.13L53.8373 165.177L55.4865 166.344L56.9737 168.306L57.909 169L60.1888 170.281L60.8046 171.067L60.8088 171.725L60.3465 173.247L60.2826 174.301L60.5063 175.029L61.3309 176.453L61.3926 176.617L62.3152 177.182L63.2378 178.314L63.2953 178.938L62.8202 179.951L62.6625 180.518L62.6306 180.834L62.6071 181.473L62.622 181.783L62.7648 182.648L62.9374 183.119L63.2016 183.559L64.4928 185.072L66.2846 186.6L66.5851 187.04L66.7491 187.417L66.828 187.686L66.9238 187.934L67.1923 188.368L67.3478 188.558L67.6568 188.718L68.051 188.84L68.85 188.887L69.291 188.84L69.6468 188.757L70.1113 188.524L72.1631 187.835L73.5971 187.602L73.9678 187.699L74.33 187.923L74.835 188.438L75.2547 189.081L76.4138 192.067L77.3982 193.86L77.7242 194.241L78.0949 194.58L78.504 194.882L79.0175 195.027L81.3527 195.258L82.0622 195.202L82.5352 195.074L83.0402 194.582L83.2319 194.525L83.4194 194.568L83.5622 194.963L83.609 195.194L83.6261 196.064L83.658 196.343L83.7198 196.581L83.7838 196.728L83.8455 196.839L83.9244 196.935L83.9414 196.957L84.2163 196.933L84.619 196.765L84.864 196.574L85.6502 195.51L85.8249 195.326L86.0785 195.273L86.3938 195.373L86.8519 195.867L87.033 196.234L87.1118 196.589L87.0884 196.995L87.1353 197.305L87.2141 197.534L87.3164 197.775L87.4741 197.968L87.8682 198.179L88.452 198.391L89.8966 198.692L90.9215 198.765L93.604 198.421L94.1153 198.479L95.349 199L97.5073 190.498L97.4775 189.859L97.3198 189.004L97.241 188.742L97.1366 188.498L96.8937 188.047L96.3802 187.335L96.1672 186.899L96.1373 186.551L96.1842 186.239L96.3973 185.732L97.567 180.073L97.8269 179.4L98.6536 178.829L99.7573 177.851L99.9704 177.611L100.88 176.81L101.187 176.213L101.581 175.262L102.913 171.2L103.039 170.911L103.23 170.635L103.522 170.302L104.406 169.552L105.295 169.05L105.808 168.862L106.631 168.725L111.727 169.447L114.305 169.327L114.67 169.171L115.119 168.909L116.232 167.962L116.568 167.757L116.845 167.707L117.444 167.797L119.268 168.607L119.685 168.492L120.288 168.201L122.572 166.536L123.103 166.38L123.395 166.344L124.019 166.432L126.244 167.167L126.55 167.21L127.143 167.167L129.533 166.081L130.1 165.991L131.378 166.079L132.493 165.816L133.011 165.602L135.167 164.309L137.176 163.546L137.738 163.44L138.054 163.42L138.369 163.45L138.661 163.512L138.874 163.625L139.245 163.685L139.724 163.632L140.704 163.243L141.209 162.873L141.531 162.568L141.674 162.307L141.776 162.042L141.808 161.745L141.785 161.45L141.674 161.2L140.736 159.954L140.334 159.368L139.731 159.717L138.774 159.627L137.585 159.261L137.246 158.915L137.097 157.052L137.106 156.742L137.191 156.404L137.344 156.071L137.596 155.622L137.724 155.284L137.762 154.976L137.683 154.726L137.549 154.525L137.366 154.348L136.925 154.079L136.656 154.006L136.364 154.038L136.089 154.192L135.039 155.152L134.834 155.295L134.596 155.408L134.344 155.472L134.067 155.44L133.848 155.31L133.665 155.115L133.533 154.893L133.445 154.598L133.43 154.239L133.516 153.73L133.69 153.45L133.886 153.237L134.905 152.869L135.48 152.769L136.592 152.754L137.287 152.61L137.888 152.281L138.235 151.901L138.723 151.168L140.38 149.49L140.619 149.133L140.666 148.845L140.649 148.546L140.532 148.328L140.351 148.144L138.77 147.182L138.589 146.998L138.653 146.502L138.951 145.75L140.491 143.241L140.783 142.647L140.839 142.331L140.853 142.01L140.815 141.709L140.745 141.442L140.555 140.933L140.182 140.249L140.11 139.99L140.165 139.58L140.366 139.069L140.822 138.163L141.122 137.742L141.405 137.462L141.665 137.383H141.974L143.781 137.796L144.35 137.787L148.198 136.759L148.82 136.812L149.397 136.947L149.926 137.152L150.375 137.432L151.511 138.432L151.716 138.665L151.939 138.826L152.135 138.922L152.389 138.948L152.853 138.826L153.098 138.868L153.335 138.967L153.776 139.255L154.068 139.358L154.319 139.413L155.048 139.334L155.694 137.887L155.883 136.917L156.167 134.38L156.386 133.968L156.663 133.752L157.317 133.795L157.62 133.878L158.029 133.85L158.51 133.72L167.306 128.723L167.615 128.473L169.036 125.772L169.349 124.964L169.43 124.678L169.626 124.118L170.762 121.94L171.036 121.611L171.299 121.429L171.537 121.461L171.678 121.636L171.81 121.848L171.985 122.032L172.262 122.13L172.884 122.166L173.333 122.111L173.634 121.998L174.754 121.331L175.093 121.006L175.323 120.694L175.394 120.399L175.441 120.091L175.432 119.779L175.37 119.514L175.298 119.279L175.172 119.014L174.318 117.727L173.979 116.994L173.909 116.714L173.894 116.4L173.923 116.08L174.256 114.699L174.437 114.143L174.673 113.889L174.967 113.767L177.364 113.457L177.91 113.308L178.391 113.083L182.146 112.365L182.414 112.276L184.229 111.265L185.333 110.959L185.631 110.82L186.62 110.198L186.895 110.098L187.653 110.023L188.18 109.867L189.058 109.407L189.475 109.102L189.761 108.815L189.901 108.585L190.021 108.337L190.091 108.067L190.106 107.762L190.067 107.469L189.989 107.2L189.901 106.943L189.68 106.465L189.641 106.135L189.688 105.725L189.933 105.107L190.17 104.804L190.47 104.657L191.186 104.616L191.683 104.468L191.906 104.236L192 103.956L191.985 103.656Z"/>
</mask>
<path d="M191.985 103.656L191.921 103.383L191.827 103.124L191.71 102.9L191.092 102.083L190.964 101.861L190.777 101.352L190.643 101.122L190.47 100.94L189.381 100.177L189.192 100.002L188.893 99.6149L188.772 99.3585L188.736 99.2281L188.64 98.8477L188.629 98.2984L184.986 96.0651L180.228 91.8142L179.764 91.203L179.369 89.1962L179.329 88.8842L179.297 88.2366L179.352 86.8752L179.747 84.9389L179.732 84.5158L179.51 84.1375L178.541 82.9535L178.353 82.4748L178.328 82.1136L178.47 81.8871L179.919 80.4167L180.243 79.9957L180.369 79.7542L180.49 79.4956L180.531 79.0361L180.505 78.4398L180.303 77.3498L180.1 76.8305L179.889 76.4821L179.676 76.3304L179.431 76.1958L178.873 76.0055L178.558 75.9607L178.249 75.9735L177.714 76.1252L176.369 76.9352L175.85 77.1083L175.236 77.1703L174.2 77.0741L173.499 76.7514L173.167 75.9393L173.278 73.6632L173.184 72.7784L173.073 72.5049L172.916 72.2398L172.673 71.9556L172.428 71.759L172.168 71.635L171.899 71.588H171.678L170.139 71.8851L169.083 71.3743L167.661 70.4019L166.967 70.0557L166.479 69.9381L166.353 70.1561L166.313 70.4403L166.4 71.3657L166.076 71.5859L165.437 71.6906L162.233 71.152L161.067 71.3871L160.547 71.573L160.081 71.8124L159.661 72.1073L159.147 72.2313L158.399 72.2975L155.898 72.0432L155.355 71.9022L155.133 71.7526L154.952 71.573L154.85 71.3294L154.803 71.0409L154.875 70.3955L154.611 69.936L154.091 69.4145L151.986 68.1258L151.605 67.7603L151.569 67.4804L151.586 67.1662L151.526 66.8328L151.345 66.4908L151.085 66.3348L150.77 66.275L149.146 66.2002L148.767 66.057L148.496 65.8582L148.262 65.3175L148.087 65.0055L147.78 64.6251L147.48 64.4862L147.196 64.4947L147.007 64.6614L146.905 64.92L146.875 65.2299L146.881 65.8647L146.866 66.1724L146.779 66.4481L146.645 66.6853L146.376 66.8948L146.014 67.0315L145.294 67.0679L144.955 66.9226L144.736 66.7088L144.68 66.4396L144.704 66.1403L144.814 65.5291L144.838 65.2214L144.791 64.9435L144.71 64.6956L144.459 64.39L142.319 62.6567L142.164 62.4559L142.045 62.2272L141.998 61.9814L142.068 61.7356L142.217 61.5369L142.422 61.3787L142.66 61.2612L145.192 60.6286L145.641 60.3657L146.014 60.0002L146.161 59.8122L146.321 59.56L146.425 59.2629L146.472 58.9787V58.6709L146.425 58.376L146.338 58.1088L146.078 57.6429L144.561 55.9268L144.295 55.728L144.064 55.619L143.513 55.4801L143.236 55.5079L142.36 55.8392L141.8 55.8712L141.461 55.7857L141.177 55.649L139.709 54.1807L139.599 53.9435L139.581 53.6571L139.645 53.3814L139.575 52.9711L139.315 52.4539L138.393 51.49L137.785 51.0327L137.329 50.789L137.08 50.7484L136.893 50.7612L136.686 50.8531L136.513 51.0177L136.349 51.2207L136.072 51.6995L135.891 51.8918L135.687 52.0521L135.442 52.1589L134.219 52.3171L133.65 52.4667L133.138 52.7488L132.263 52.9262V53.5225L131.7 53.0266L130.754 52.7317L130.179 52.4282L129.717 51.8298L129.391 51.0882L128.975 50.4535L128.253 50.1885L127.786 49.8444L127.473 48.3419L126.851 48L126.148 48.0427L125.5 48.2137L124.963 48.5642L124.599 49.137L124.611 49.169L123.435 51.2122L123.949 55.0206L124.313 56.0785L124.575 56.3029L124.513 56.4803L123.876 57.3972L122.915 58.4273L119.641 60.1456L119.498 61.1073L119.579 62.6482L119.494 63.6847L119.264 64.5482L118.149 67.1747L115.473 68.2882L106.262 68.4036L104.507 68.9614L103.631 69.4102L102.941 70.0898L102.384 71.2589L101.745 73.3768L101.711 73.488L101.008 74.5159L96.9981 78.8843L95.528 80.0769H95.5216L95.5173 80.0811H95.5109L92.7411 82.2119L90.4463 83.9986L78.8278 96.6507L77.298 99.0229L75.438 100.487L73.416 102.729L67.9039 110.837L65.7754 113.03L65.5069 113.682L65.0915 115.27L64.855 115.832L64.4139 116.274L63.5169 116.61L63.0695 116.905L62.5752 117.512L59.4431 123.203L58.5866 124.073L58.0305 124.314L56.9374 124.532L56.3685 125.024L56.0021 125.701L55.1242 128.21L51.2677 133.412L50 136.438L50.978 139.238L51.3189 140.384L51.6342 143.711L51.8238 144.6L51.9666 145.032L52.6271 146.084L53.7265 147.246L54.0099 147.842L54.2358 149.086L54.924 156.239L54.7301 157.37L53.8735 159.74L53.1534 162.497L52.3501 164.181L52.0753 165.126L52.3863 165.54L52.6228 165.382L53.2961 164.534L54.0951 165.098L54.0312 165.13L53.8373 165.177L55.4865 166.344L56.9737 168.306L57.909 169L60.1888 170.281L60.8046 171.067L60.8088 171.725L60.3465 173.247L60.2826 174.301L60.5063 175.029L61.3309 176.453L61.3926 176.617L62.3152 177.182L63.2378 178.314L63.2953 178.938L62.8202 179.951L62.6625 180.518L62.6306 180.834L62.6071 181.473L62.622 181.783L62.7648 182.648L62.9374 183.119L63.2016 183.559L64.4928 185.072L66.2846 186.6L66.5851 187.04L66.7491 187.417L66.828 187.686L66.9238 187.934L67.1923 188.368L67.3478 188.558L67.6568 188.718L68.051 188.84L68.85 188.887L69.291 188.84L69.6468 188.757L70.1113 188.524L72.1631 187.835L73.5971 187.602L73.9678 187.699L74.33 187.923L74.835 188.438L75.2547 189.081L76.4138 192.067L77.3982 193.86L77.7242 194.241L78.0949 194.58L78.504 194.882L79.0175 195.027L81.3527 195.258L82.0622 195.202L82.5352 195.074L83.0402 194.582L83.2319 194.525L83.4194 194.568L83.5622 194.963L83.609 195.194L83.6261 196.064L83.658 196.343L83.7198 196.581L83.7838 196.728L83.8455 196.839L83.9244 196.935L83.9414 196.957L84.2163 196.933L84.619 196.765L84.864 196.574L85.6502 195.51L85.8249 195.326L86.0785 195.273L86.3938 195.373L86.8519 195.867L87.033 196.234L87.1118 196.589L87.0884 196.995L87.1353 197.305L87.2141 197.534L87.3164 197.775L87.4741 197.968L87.8682 198.179L88.452 198.391L89.8966 198.692L90.9215 198.765L93.604 198.421L94.1153 198.479L95.349 199L97.5073 190.498L97.4775 189.859L97.3198 189.004L97.241 188.742L97.1366 188.498L96.8937 188.047L96.3802 187.335L96.1672 186.899L96.1373 186.551L96.1842 186.239L96.3973 185.732L97.567 180.073L97.8269 179.4L98.6536 178.829L99.7573 177.851L99.9704 177.611L100.88 176.81L101.187 176.213L101.581 175.262L102.913 171.2L103.039 170.911L103.23 170.635L103.522 170.302L104.406 169.552L105.295 169.05L105.808 168.862L106.631 168.725L111.727 169.447L114.305 169.327L114.67 169.171L115.119 168.909L116.232 167.962L116.568 167.757L116.845 167.707L117.444 167.797L119.268 168.607L119.685 168.492L120.288 168.201L122.572 166.536L123.103 166.38L123.395 166.344L124.019 166.432L126.244 167.167L126.55 167.21L127.143 167.167L129.533 166.081L130.1 165.991L131.378 166.079L132.493 165.816L133.011 165.602L135.167 164.309L137.176 163.546L137.738 163.44L138.054 163.42L138.369 163.45L138.661 163.512L138.874 163.625L139.245 163.685L139.724 163.632L140.704 163.243L141.209 162.873L141.531 162.568L141.674 162.307L141.776 162.042L141.808 161.745L141.785 161.45L141.674 161.2L140.736 159.954L140.334 159.368L139.731 159.717L138.774 159.627L137.585 159.261L137.246 158.915L137.097 157.052L137.106 156.742L137.191 156.404L137.344 156.071L137.596 155.622L137.724 155.284L137.762 154.976L137.683 154.726L137.549 154.525L137.366 154.348L136.925 154.079L136.656 154.006L136.364 154.038L136.089 154.192L135.039 155.152L134.834 155.295L134.596 155.408L134.344 155.472L134.067 155.44L133.848 155.31L133.665 155.115L133.533 154.893L133.445 154.598L133.43 154.239L133.516 153.73L133.69 153.45L133.886 153.237L134.905 152.869L135.48 152.769L136.592 152.754L137.287 152.61L137.888 152.281L138.235 151.901L138.723 151.168L140.38 149.49L140.619 149.133L140.666 148.845L140.649 148.546L140.532 148.328L140.351 148.144L138.77 147.182L138.589 146.998L138.653 146.502L138.951 145.75L140.491 143.241L140.783 142.647L140.839 142.331L140.853 142.01L140.815 141.709L140.745 141.442L140.555 140.933L140.182 140.249L140.11 139.99L140.165 139.58L140.366 139.069L140.822 138.163L141.122 137.742L141.405 137.462L141.665 137.383H141.974L143.781 137.796L144.35 137.787L148.198 136.759L148.82 136.812L149.397 136.947L149.926 137.152L150.375 137.432L151.511 138.432L151.716 138.665L151.939 138.826L152.135 138.922L152.389 138.948L152.853 138.826L153.098 138.868L153.335 138.967L153.776 139.255L154.068 139.358L154.319 139.413L155.048 139.334L155.694 137.887L155.883 136.917L156.167 134.38L156.386 133.968L156.663 133.752L157.317 133.795L157.62 133.878L158.029 133.85L158.51 133.72L167.306 128.723L167.615 128.473L169.036 125.772L169.349 124.964L169.43 124.678L169.626 124.118L170.762 121.94L171.036 121.611L171.299 121.429L171.537 121.461L171.678 121.636L171.81 121.848L171.985 122.032L172.262 122.13L172.884 122.166L173.333 122.111L173.634 121.998L174.754 121.331L175.093 121.006L175.323 120.694L175.394 120.399L175.441 120.091L175.432 119.779L175.37 119.514L175.298 119.279L175.172 119.014L174.318 117.727L173.979 116.994L173.909 116.714L173.894 116.4L173.923 116.08L174.256 114.699L174.437 114.143L174.673 113.889L174.967 113.767L177.364 113.457L177.91 113.308L178.391 113.083L182.146 112.365L182.414 112.276L184.229 111.265L185.333 110.959L185.631 110.82L186.62 110.198L186.895 110.098L187.653 110.023L188.18 109.867L189.058 109.407L189.475 109.102L189.761 108.815L189.901 108.585L190.021 108.337L190.091 108.067L190.106 107.762L190.067 107.469L189.989 107.2L189.901 106.943L189.68 106.465L189.641 106.135L189.688 105.725L189.933 105.107L190.17 104.804L190.47 104.657L191.186 104.616L191.683 104.468L191.906 104.236L192 103.956L191.985 103.656Z" fill="white" style="mix-blend-mode:screen"/>
<path d="M191.985 103.656L191.921 103.383L191.827 103.124L191.71 102.9L191.092 102.083L190.964 101.861L190.777 101.352L190.643 101.122L190.47 100.94L189.381 100.177L189.192 100.002L188.893 99.6149L188.772 99.3585L188.736 99.2281L188.64 98.8477L188.629 98.2984L184.986 96.0651L180.228 91.8142L179.764 91.203L179.369 89.1962L179.329 88.8842L179.297 88.2366L179.352 86.8752L179.747 84.9389L179.732 84.5158L179.51 84.1375L178.541 82.9535L178.353 82.4748L178.328 82.1136L178.47 81.8871L179.919 80.4167L180.243 79.9957L180.369 79.7542L180.49 79.4956L180.531 79.0361L180.505 78.4398L180.303 77.3498L180.1 76.8305L179.889 76.4821L179.676 76.3304L179.431 76.1958L178.873 76.0055L178.558 75.9607L178.249 75.9735L177.714 76.1252L176.369 76.9352L175.85 77.1083L175.236 77.1703L174.2 77.0741L173.499 76.7514L173.167 75.9393L173.278 73.6632L173.184 72.7784L173.073 72.5049L172.916 72.2398L172.673 71.9556L172.428 71.759L172.168 71.635L171.899 71.588H171.678L170.139 71.8851L169.083 71.3743L167.661 70.4019L166.967 70.0557L166.479 69.9381L166.353 70.1561L166.313 70.4403L166.4 71.3657L166.076 71.5859L165.437 71.6906L162.233 71.152L161.067 71.3871L160.547 71.573L160.081 71.8124L159.661 72.1073L159.147 72.2313L158.399 72.2975L155.898 72.0432L155.355 71.9022L155.133 71.7526L154.952 71.573L154.85 71.3294L154.803 71.0409L154.875 70.3955L154.611 69.936L154.091 69.4145L151.986 68.1258L151.605 67.7603L151.569 67.4804L151.586 67.1662L151.526 66.8328L151.345 66.4908L151.085 66.3348L150.77 66.275L149.146 66.2002L148.767 66.057L148.496 65.8582L148.262 65.3175L148.087 65.0055L147.78 64.6251L147.48 64.4862L147.196 64.4947L147.007 64.6614L146.905 64.92L146.875 65.2299L146.881 65.8647L146.866 66.1724L146.779 66.4481L146.645 66.6853L146.376 66.8948L146.014 67.0315L145.294 67.0679L144.955 66.9226L144.736 66.7088L144.68 66.4396L144.704 66.1403L144.814 65.5291L144.838 65.2214L144.791 64.9435L144.71 64.6956L144.459 64.39L142.319 62.6567L142.164 62.4559L142.045 62.2272L141.998 61.9814L142.068 61.7356L142.217 61.5369L142.422 61.3787L142.66 61.2612L145.192 60.6286L145.641 60.3657L146.014 60.0002L146.161 59.8122L146.321 59.56L146.425 59.2629L146.472 58.9787V58.6709L146.425 58.376L146.338 58.1088L146.078 57.6429L144.561 55.9268L144.295 55.728L144.064 55.619L143.513 55.4801L143.236 55.5079L142.36 55.8392L141.8 55.8712L141.461 55.7857L141.177 55.649L139.709 54.1807L139.599 53.9435L139.581 53.6571L139.645 53.3814L139.575 52.9711L139.315 52.4539L138.393 51.49L137.785 51.0327L137.329 50.789L137.08 50.7484L136.893 50.7612L136.686 50.8531L136.513 51.0177L136.349 51.2207L136.072 51.6995L135.891 51.8918L135.687 52.0521L135.442 52.1589L134.219 52.3171L133.65 52.4667L133.138 52.7488L132.263 52.9262V53.5225L131.7 53.0266L130.754 52.7317L130.179 52.4282L129.717 51.8298L129.391 51.0882L128.975 50.4535L128.253 50.1885L127.786 49.8444L127.473 48.3419L126.851 48L126.148 48.0427L125.5 48.2137L124.963 48.5642L124.599 49.137L124.611 49.169L123.435 51.2122L123.949 55.0206L124.313 56.0785L124.575 56.3029L124.513 56.4803L123.876 57.3972L122.915 58.4273L119.641 60.1456L119.498 61.1073L119.579 62.6482L119.494 63.6847L119.264 64.5482L118.149 67.1747L115.473 68.2882L106.262 68.4036L104.507 68.9614L103.631 69.4102L102.941 70.0898L102.384 71.2589L101.745 73.3768L101.711 73.488L101.008 74.5159L96.9981 78.8843L95.528 80.0769H95.5216L95.5173 80.0811H95.5109L92.7411 82.2119L90.4463 83.9986L78.8278 96.6507L77.298 99.0229L75.438 100.487L73.416 102.729L67.9039 110.837L65.7754 113.03L65.5069 113.682L65.0915 115.27L64.855 115.832L64.4139 116.274L63.5169 116.61L63.0695 116.905L62.5752 117.512L59.4431 123.203L58.5866 124.073L58.0305 124.314L56.9374 124.532L56.3685 125.024L56.0021 125.701L55.1242 128.21L51.2677 133.412L50 136.438L50.978 139.238L51.3189 140.384L51.6342 143.711L51.8238 144.6L51.9666 145.032L52.6271 146.084L53.7265 147.246L54.0099 147.842L54.2358 149.086L54.924 156.239L54.7301 157.37L53.8735 159.74L53.1534 162.497L52.3501 164.181L52.0753 165.126L52.3863 165.54L52.6228 165.382L53.2961 164.534L54.0951 165.098L54.0312 165.13L53.8373 165.177L55.4865 166.344L56.9737 168.306L57.909 169L60.1888 170.281L60.8046 171.067L60.8088 171.725L60.3465 173.247L60.2826 174.301L60.5063 175.029L61.3309 176.453L61.3926 176.617L62.3152 177.182L63.2378 178.314L63.2953 178.938L62.8202 179.951L62.6625 180.518L62.6306 180.834L62.6071 181.473L62.622 181.783L62.7648 182.648L62.9374 183.119L63.2016 183.559L64.4928 185.072L66.2846 186.6L66.5851 187.04L66.7491 187.417L66.828 187.686L66.9238 187.934L67.1923 188.368L67.3478 188.558L67.6568 188.718L68.051 188.84L68.85 188.887L69.291 188.84L69.6468 188.757L70.1113 188.524L72.1631 187.835L73.5971 187.602L73.9678 187.699L74.33 187.923L74.835 188.438L75.2547 189.081L76.4138 192.067L77.3982 193.86L77.7242 194.241L78.0949 194.58L78.504 194.882L79.0175 195.027L81.3527 195.258L82.0622 195.202L82.5352 195.074L83.0402 194.582L83.2319 194.525L83.4194 194.568L83.5622 194.963L83.609 195.194L83.6261 196.064L83.658 196.343L83.7198 196.581L83.7838 196.728L83.8455 196.839L83.9244 196.935L83.9414 196.957L84.2163 196.933L84.619 196.765L84.864 196.574L85.6502 195.51L85.8249 195.326L86.0785 195.273L86.3938 195.373L86.8519 195.867L87.033 196.234L87.1118 196.589L87.0884 196.995L87.1353 197.305L87.2141 197.534L87.3164 197.775L87.4741 197.968L87.8682 198.179L88.452 198.391L89.8966 198.692L90.9215 198.765L93.604 198.421L94.1153 198.479L95.349 199L97.5073 190.498L97.4775 189.859L97.3198 189.004L97.241 188.742L97.1366 188.498L96.8937 188.047L96.3802 187.335L96.1672 186.899L96.1373 186.551L96.1842 186.239L96.3973 185.732L97.567 180.073L97.8269 179.4L98.6536 178.829L99.7573 177.851L99.9704 177.611L100.88 176.81L101.187 176.213L101.581 175.262L102.913 171.2L103.039 170.911L103.23 170.635L103.522 170.302L104.406 169.552L105.295 169.05L105.808 168.862L106.631 168.725L111.727 169.447L114.305 169.327L114.67 169.171L115.119 168.909L116.232 167.962L116.568 167.757L116.845 167.707L117.444 167.797L119.268 168.607L119.685 168.492L120.288 168.201L122.572 166.536L123.103 166.38L123.395 166.344L124.019 166.432L126.244 167.167L126.55 167.21L127.143 167.167L129.533 166.081L130.1 165.991L131.378 166.079L132.493 165.816L133.011 165.602L135.167 164.309L137.176 163.546L137.738 163.44L138.054 163.42L138.369 163.45L138.661 163.512L138.874 163.625L139.245 163.685L139.724 163.632L140.704 163.243L141.209 162.873L141.531 162.568L141.674 162.307L141.776 162.042L141.808 161.745L141.785 161.45L141.674 161.2L140.736 159.954L140.334 159.368L139.731 159.717L138.774 159.627L137.585 159.261L137.246 158.915L137.097 157.052L137.106 156.742L137.191 156.404L137.344 156.071L137.596 155.622L137.724 155.284L137.762 154.976L137.683 154.726L137.549 154.525L137.366 154.348L136.925 154.079L136.656 154.006L136.364 154.038L136.089 154.192L135.039 155.152L134.834 155.295L134.596 155.408L134.344 155.472L134.067 155.44L133.848 155.31L133.665 155.115L133.533 154.893L133.445 154.598L133.43 154.239L133.516 153.73L133.69 153.45L133.886 153.237L134.905 152.869L135.48 152.769L136.592 152.754L137.287 152.61L137.888 152.281L138.235 151.901L138.723 151.168L140.38 149.49L140.619 149.133L140.666 148.845L140.649 148.546L140.532 148.328L140.351 148.144L138.77 147.182L138.589 146.998L138.653 146.502L138.951 145.75L140.491 143.241L140.783 142.647L140.839 142.331L140.853 142.01L140.815 141.709L140.745 141.442L140.555 140.933L140.182 140.249L140.11 139.99L140.165 139.58L140.366 139.069L140.822 138.163L141.122 137.742L141.405 137.462L141.665 137.383H141.974L143.781 137.796L144.35 137.787L148.198 136.759L148.82 136.812L149.397 136.947L149.926 137.152L150.375 137.432L151.511 138.432L151.716 138.665L151.939 138.826L152.135 138.922L152.389 138.948L152.853 138.826L153.098 138.868L153.335 138.967L153.776 139.255L154.068 139.358L154.319 139.413L155.048 139.334L155.694 137.887L155.883 136.917L156.167 134.38L156.386 133.968L156.663 133.752L157.317 133.795L157.62 133.878L158.029 133.85L158.51 133.72L167.306 128.723L167.615 128.473L169.036 125.772L169.349 124.964L169.43 124.678L169.626 124.118L170.762 121.94L171.036 121.611L171.299 121.429L171.537 121.461L171.678 121.636L171.81 121.848L171.985 122.032L172.262 122.13L172.884 122.166L173.333 122.111L173.634 121.998L174.754 121.331L175.093 121.006L175.323 120.694L175.394 120.399L175.441 120.091L175.432 119.779L175.37 119.514L175.298 119.279L175.172 119.014L174.318 117.727L173.979 116.994L173.909 116.714L173.894 116.4L173.923 116.08L174.256 114.699L174.437 114.143L174.673 113.889L174.967 113.767L177.364 113.457L177.91 113.308L178.391 113.083L182.146 112.365L182.414 112.276L184.229 111.265L185.333 110.959L185.631 110.82L186.62 110.198L186.895 110.098L187.653 110.023L188.18 109.867L189.058 109.407L189.475 109.102L189.761 108.815L189.901 108.585L190.021 108.337L190.091 108.067L190.106 107.762L190.067 107.469L189.989 107.2L189.901 106.943L189.68 106.465L189.641 106.135L189.688 105.725L189.933 105.107L190.17 104.804L190.47 104.657L191.186 104.616L191.683 104.468L191.906 104.236L192 103.956L191.985 103.656Z" stroke="white" stroke-width="6" mask="url(#path-1-inside-1_0_236)"/>
</g>
<defs>
<filter id="filter0_d_0_236" x="0" y="0" width="242" height="251" filterUnits="userSpaceOnUse" color-interpolation-filters="sRGB">
<feFlood flood-opacity="0" result="BackgroundImageFix"/>
<feColorMatrix in="SourceAlpha" type="matrix" values="0 0 0 0 0 0 0 0 0 0 0 0 0 0 0 0 0 0 127 0" result="hardAlpha"/>
<feOffset dy="2"/>
<feGaussianBlur stdDeviation="25"/>
<feColorMatrix type="matrix" values="0 0 0 0 0 0 0 0 0 0 0 0 0 0 0 0 0 0 0.2 0"/>
<feBlend mode="normal" in2="BackgroundImageFix" result="effect1_dropShadow_0_236"/>
<feBlend mode="normal" in="SourceGraphic" in2="effect1_dropShadow_0_236" result="shape"/>
</filter>
</defs>
</svg>
