<svg width="197" height="253" viewBox="0 0 197 253" fill="none" xmlns="http://www.w3.org/2000/svg">
<rect width="197" height="204" rx="20" fill="#248DFF" fill-opacity="0.1"/>
<path fill-rule="evenodd" clip-rule="evenodd" d="M141.412 60.0442H56.4166C55.6347 60.0442 55 60.6773 55 61.4608V115.293C55 116.076 55.6347 116.709 56.4166 116.709H83.1391C83.921 116.709 84.5556 116.076 84.5556 115.293C84.5556 113.856 83.8247 112.516 82.6008 111.713C81.7338 111.143 81.9095 110.326 81.9846 110.089C82.1532 109.553 82.6843 108.942 83.5798 109.011C85.1041 109.013 86.4937 108.358 87.3521 107.158C88.1722 106.012 88.3721 104.542 87.8834 103.225C87.6379 102.562 87.8969 102.086 88.1517 101.807C88.226 101.726 88.3 101.661 88.361 101.613L88.3735 101.604L88.3861 101.594C88.8522 101.242 89.6639 101.028 90.4148 101.582C91.5919 102.449 93.1318 102.691 94.5328 102.232C95.2174 102.006 95.8158 101.637 96.2962 101.156C96.786 100.667 97.153 100.062 97.3633 99.3757C97.4237 99.1791 97.5126 99.0136 97.6211 98.8759C97.6779 98.8037 97.7401 98.7392 97.8065 98.6817C98.1281 98.4034 98.5461 98.2923 98.9144 98.2923C99.5038 98.2923 100.221 98.577 100.464 99.3745C100.882 100.733 101.915 101.776 103.296 102.23C104.697 102.689 106.237 102.447 107.414 101.58C108.163 101.028 108.975 101.239 109.442 101.593C109.703 101.787 110.273 102.339 109.945 103.222C109.84 103.505 109.767 103.794 109.726 104.084C109.57 105.152 109.831 106.254 110.477 107.157C111.337 108.357 112.738 109.007 114.249 109.01C115.191 108.946 115.676 109.551 115.844 110.088C115.92 110.325 116.094 111.143 115.23 111.712C114.004 112.515 113.273 113.853 113.273 115.291C113.273 116.075 113.908 116.708 114.69 116.708H141.412C142.194 116.708 142.829 116.075 142.829 115.291V61.4608C142.828 60.6773 142.194 60.0442 141.412 60.0442ZM86.6803 99.3289C87.3508 98.8243 88.1179 98.5273 88.9021 98.4382C90.0072 98.3122 91.1462 98.5993 92.096 99.3004C92.4418 99.5551 92.8582 99.6661 93.2786 99.6201C93.4002 99.6066 93.5222 99.5801 93.6428 99.5401C94.1401 99.3759 94.507 99.0131 94.6515 98.5443C94.9224 97.6651 95.434 96.9322 96.1082 96.4017C96.1532 96.3663 96.1989 96.3318 96.2452 96.2983C96.987 95.7613 97.9082 95.4588 98.9141 95.4588C100.926 95.4588 102.597 96.6687 103.174 98.5427C103.318 99.0131 103.685 99.3771 104.184 99.5401C104.721 99.7214 105.285 99.6306 105.731 99.3006C107.354 98.1007 109.53 98.112 111.146 99.3289C112.116 100.059 112.703 101.081 112.843 102.184C112.894 102.58 112.887 102.987 112.819 103.394C112.774 103.667 112.702 103.939 112.601 104.209C112.587 104.247 112.575 104.285 112.565 104.321C112.453 104.72 112.541 105.086 112.71 105.376H119.908C121.121 105.376 122.316 105.714 123.366 106.351C124.475 107.022 126.97 108.157 131.205 108.208C132.7 108.177 134.04 107.239 134.278 105.915C134.546 104.422 133.687 103.286 132.715 102.819C132.715 102.819 132.715 102.819 132.715 102.819L132.715 102.818L132.714 102.818C131.115 102.05 130.079 100.359 130.079 98.5101V78.243C130.079 76.3943 131.115 74.703 132.717 73.9352C133.688 73.4691 134.548 72.3316 134.281 70.8385C134.043 69.5125 132.69 68.5606 131.208 68.545C126.973 68.5946 124.478 69.7307 123.367 70.4037C122.318 71.0397 121.121 71.3768 119.908 71.3768H77.9203C76.7092 71.3768 75.5122 71.0396 74.461 70.4021C73.3519 69.7307 70.8573 68.596 66.6217 68.545C65.1186 68.5805 63.7856 69.5141 63.5477 70.8385C63.2801 72.3316 64.1398 73.4691 65.1102 73.9338C66.7138 74.703 67.7494 76.3943 67.7494 78.243V98.5115C67.7494 100.36 66.7138 102.052 65.1116 102.819C64.1398 103.285 63.2799 104.423 63.5477 105.916C63.7856 107.241 65.1073 108.157 66.6217 108.21C70.8572 108.16 73.3519 107.024 74.4624 106.351C75.5121 105.715 76.7077 105.376 77.9203 105.376H85.118C85.2566 105.139 85.3407 104.851 85.3059 104.536C85.2932 104.432 85.2676 104.323 85.2255 104.209C84.5582 102.411 85.1307 100.496 86.6803 99.3289ZM119.908 108.21H118.068C118.268 108.524 118.43 108.869 118.547 109.241C119.095 110.982 118.516 112.765 117.072 113.875H139.995V62.8773H57.8332V113.874H80.7562C79.3113 112.764 78.7332 110.982 79.2801 109.239C79.3962 108.87 79.5571 108.526 79.7561 108.211H77.9203C77.2263 108.211 76.5392 108.406 75.9315 108.773C74.2727 109.779 71.3176 110.986 66.6556 111.043C63.7247 111.033 61.2485 109.13 60.7598 106.416C60.2994 103.852 61.5573 101.38 63.8877 100.264C64.5122 99.965 64.916 99.275 64.916 98.5101V78.243C64.916 77.478 64.5122 76.7896 63.8861 76.4892C61.5557 75.3742 60.2992 72.9023 60.7583 70.3383C61.2427 67.6468 63.6835 65.7117 66.5789 65.7117H66.6555C71.3176 65.7669 74.2725 66.9753 75.9299 67.9796C76.5391 68.3479 77.2263 68.5435 77.9203 68.5435H119.908C120.602 68.5435 121.289 68.3481 121.895 67.9812C123.554 66.9754 126.509 65.7685 131.173 65.7119C134.094 65.7218 136.581 67.6244 137.068 70.3385C137.529 72.9025 136.272 75.3745 133.941 76.4908C133.316 76.7882 132.912 77.4781 132.912 78.243V98.5115C132.912 99.2766 133.316 99.965 133.942 100.265C136.273 101.38 137.529 103.852 137.069 106.416C136.586 109.107 134.145 111.042 131.25 111.042H131.173C126.51 110.986 123.556 109.778 121.897 108.774C121.29 108.404 120.601 108.21 119.908 108.21ZM96.0811 91.2091C96.0811 90.4256 96.7158 89.7925 97.4977 89.7925H100.331H111.664C112.445 89.7925 113.08 90.4256 113.08 91.2091C113.08 91.9925 112.445 92.6256 111.664 92.6256H100.331H97.4977C96.7158 92.6256 96.0811 91.9925 96.0811 91.2091ZM97.0854 130.569C96.5089 129.406 95.438 128.563 94.1475 128.252C92.8484 127.937 91.4857 128.21 90.4148 129.001C89.6569 129.563 88.7985 129.354 88.2842 128.899C87.9655 128.617 87.535 128.492 87.1169 128.562C86.6977 128.631 86.3307 128.883 86.1182 129.252L80.6885 138.665C80.4037 139.158 80.4419 139.774 80.7849 140.227C81.1276 140.679 81.7071 140.888 82.2596 140.747L86.5519 139.675L87.6242 143.966C87.7659 144.531 88.239 144.953 88.8169 145.029C88.8778 145.036 88.9373 145.04 88.9982 145.04C89.5109 145.04 89.9899 144.762 90.2405 144.306L97.0585 131.881C97.2824 131.474 97.2921 130.984 97.0854 130.569ZM89.4953 139.771L88.9557 137.614C88.7942 136.969 88.2177 136.54 87.583 136.54C87.4682 136.54 87.3535 136.554 87.2387 136.581L84.8121 137.187L87.8648 131.895C89.2574 132.406 90.8368 132.211 92.0976 131.28C92.6388 130.879 93.1968 130.932 93.4829 131.005C93.7265 131.063 93.949 131.172 94.1331 131.32L89.4953 139.771ZM111.712 129.25L117.142 138.663C117.426 139.156 117.388 139.771 117.045 140.226C116.702 140.68 116.124 140.889 115.57 140.746L111.278 139.673L110.206 143.964C110.064 144.53 109.591 144.952 109.013 145.027C108.951 145.035 108.89 145.039 108.83 145.039C108.319 145.039 107.84 144.762 107.59 144.304L100.771 131.879C100.548 131.473 100.538 130.983 100.745 130.568C101.321 129.406 102.392 128.562 103.683 128.25C104.983 127.934 106.344 128.21 107.415 128.999C108.173 129.56 109.033 129.352 109.546 128.897C109.864 128.615 110.292 128.491 110.713 128.56C111.132 128.63 111.499 128.883 111.712 129.25ZM108.873 137.614C109.063 136.853 109.835 136.395 110.591 136.582L113.018 137.189L109.965 131.896C108.572 132.409 106.993 132.214 105.732 131.281C105.191 130.881 104.633 130.933 104.347 131.007C104.102 131.065 103.879 131.174 103.695 131.32L108.333 139.771L108.873 137.614ZM105.997 82.7096H124.413C125.195 82.7096 125.829 83.3427 125.829 84.1262C125.829 84.9096 125.195 85.5427 124.413 85.5427H105.997C105.215 85.5427 104.581 84.9096 104.581 84.1262C104.581 83.3427 105.215 82.7096 105.997 82.7096ZM111.664 75.6267H100.331H97.4977C96.7158 75.6267 96.0811 76.2599 96.0811 77.0433C96.0811 77.8267 96.7158 78.4599 97.4977 78.4599H100.331H111.664C112.445 78.4599 113.08 77.8267 113.08 77.0433C113.08 76.2599 112.445 75.6267 111.664 75.6267ZM117.33 75.6267H124.413C125.195 75.6267 125.829 76.2599 125.829 77.0433C125.829 77.8267 125.195 78.4599 124.413 78.4599H117.33C116.548 78.4599 115.913 77.8267 115.913 77.0433C115.913 76.2599 116.548 75.6267 117.33 75.6267ZM101.747 84.1262C101.747 83.3427 101.113 82.7096 100.331 82.7096H97.4977H86.1649C85.383 82.7096 84.7483 83.3427 84.7483 84.1262C84.7483 84.9096 85.383 85.5427 86.1649 85.5427H97.4977H100.331C101.113 85.5427 101.747 84.9096 101.747 84.1262ZM91.8313 75.6267H73.4157C72.6338 75.6267 71.9991 76.2599 71.9991 77.0433C71.9991 77.8267 72.6338 78.4599 73.4157 78.4599H91.8313C92.6132 78.4599 93.2479 77.8267 93.2479 77.0433C93.2479 76.2599 92.6132 75.6267 91.8313 75.6267ZM80.4986 82.7096H73.4157C72.6338 82.7096 71.9991 83.3427 71.9991 84.1262C71.9991 84.9096 72.6338 85.5427 73.4157 85.5427H80.4986C81.2804 85.5427 81.9151 84.9096 81.9151 84.1262C81.9151 83.3427 81.2806 82.7096 80.4986 82.7096ZM73.4157 96.8755H80.4986C81.2806 96.8755 81.9151 97.5087 81.9151 98.2921C81.9151 99.0755 81.2804 99.7087 80.4986 99.7087H73.4157C72.6338 99.7087 71.9991 99.0755 71.9991 98.2921C71.9991 97.5087 72.6338 96.8755 73.4157 96.8755ZM124.413 96.8755H117.33C116.548 96.8755 115.913 97.5087 115.913 98.2921C115.913 99.0755 116.548 99.7087 117.33 99.7087H124.413C125.195 99.7087 125.829 99.0755 125.829 98.2921C125.829 97.5087 125.195 96.8755 124.413 96.8755ZM124.413 89.7925H117.33C116.548 89.7925 115.913 90.4256 115.913 91.2091C115.913 91.9925 116.548 92.6256 117.33 92.6256H124.413C125.195 92.6256 125.829 91.9925 125.829 91.2091C125.829 90.4256 125.195 89.7925 124.413 89.7925ZM73.4157 89.7925H91.8313C92.6132 89.7925 93.2479 90.4256 93.2479 91.2091C93.2479 91.9925 92.6132 92.6256 91.8313 92.6256H73.4157C72.6338 92.6256 71.9991 91.9925 71.9991 91.2091C71.9991 90.4256 72.6338 89.7925 73.4157 89.7925ZM98.9142 103.958C92.6657 103.958 87.5814 109.043 87.5814 115.291C87.5814 121.54 92.6655 126.624 98.9142 126.624C105.163 126.624 110.247 121.54 110.247 115.291C110.247 109.043 105.163 103.958 98.9142 103.958ZM98.9142 123.791C94.2267 123.791 90.4148 119.979 90.4148 115.291C90.4148 110.604 94.2267 106.792 98.9142 106.792C103.602 106.792 107.414 110.604 107.414 115.291C107.414 119.979 103.602 123.791 98.9142 123.791ZM97.4976 116.121L95.666 114.29C95.112 113.736 94.2168 113.736 93.6629 114.29C93.109 114.843 93.109 115.739 93.6629 116.293L96.494 119.124C96.4947 119.124 96.4954 119.125 96.496 119.126C96.5306 119.16 96.5664 119.193 96.6035 119.223C96.8629 119.435 97.1802 119.541 97.4977 119.541C97.8605 119.541 98.2229 119.402 98.4991 119.126C98.4991 119.126 98.4991 119.126 98.4991 119.126L104.165 113.46C104.719 112.906 104.719 112.01 104.166 111.456C103.612 110.903 102.716 110.903 102.163 111.456L97.4976 116.121Z" fill="#248DFF"/>
<path d="M25.0676 249V235H27.5276V240.82H34.2076V235H36.6676V249H34.2076V243.1H27.5276V249H25.0676ZM48.8429 249H46.4429V247.7C45.5896 248.713 44.4496 249.22 43.0229 249.22C41.9696 249.22 41.0762 248.933 40.3429 248.36C39.6229 247.773 39.2629 246.96 39.2629 245.92C39.2629 244.787 39.6562 243.927 40.4429 243.34C41.2296 242.753 42.2629 242.46 43.5429 242.46C44.5696 242.46 45.5429 242.607 46.4629 242.9V242.7C46.4629 241.967 46.2362 241.407 45.7829 241.02C45.3429 240.633 44.7029 240.44 43.8629 240.44C42.9029 240.44 41.8962 240.66 40.8429 241.1L40.1829 239.16C41.4896 238.573 42.8296 238.28 44.2029 238.28C45.7362 238.28 46.8896 238.667 47.6629 239.44C48.4496 240.213 48.8429 241.313 48.8429 242.74V249ZM46.5029 245.18V244.58C45.7829 244.3 44.9762 244.16 44.0829 244.16C43.3229 244.16 42.7296 244.307 42.3029 244.6C41.8762 244.893 41.6629 245.307 41.6629 245.84C41.6629 246.32 41.8562 246.7 42.2429 246.98C42.6296 247.26 43.1162 247.4 43.7029 247.4C44.5162 247.4 45.1829 247.193 45.7029 246.78C46.2362 246.367 46.5029 245.833 46.5029 245.18ZM50.5012 251.54V246.92H51.6412C52.4278 245.347 52.8212 242.953 52.8212 239.74V238.44H61.0012V246.92H62.5012L62.1812 251.54H60.1612V249H52.7612L52.5212 251.54H50.5012ZM54.1212 246.92H58.5812V240.52H55.1012V241.92C55.1012 243.88 54.7745 245.547 54.1212 246.92ZM64.5141 252.2V238.44H66.9341V240.2C67.8675 238.88 69.0608 238.22 70.5141 238.22C71.8475 238.22 73.0008 238.72 73.9741 239.72C74.9475 240.707 75.4341 242.047 75.4341 243.74C75.4341 245.407 74.9475 246.74 73.9741 247.74C73.0008 248.727 71.8475 249.22 70.5141 249.22C69.0608 249.22 67.8675 248.6 66.9341 247.36V252.2H64.5141ZM69.9541 247.12C70.8075 247.12 71.5208 246.807 72.0941 246.18C72.6808 245.553 72.9741 244.727 72.9741 243.7C72.9741 242.7 72.6808 241.887 72.0941 241.26C71.5075 240.633 70.7941 240.32 69.9541 240.32C69.1141 240.32 68.3875 240.64 67.7741 241.28C67.1741 241.92 66.8741 242.74 66.8741 243.74C66.8741 244.727 67.1741 245.54 67.7741 246.18C68.3875 246.807 69.1141 247.12 69.9541 247.12ZM80.0726 252.26C79.1926 252.26 78.3592 252.047 77.5726 251.62L78.3926 249.82C78.8859 250.087 79.3592 250.22 79.8126 250.22C80.1592 250.22 80.4459 250.127 80.6726 249.94C80.8992 249.767 81.1126 249.453 81.3126 249L76.9126 238.44H79.4926L82.4926 246.28L85.2326 238.44H87.7526L83.5526 249.3C83.1259 250.38 82.6526 251.14 82.1326 251.58C81.6126 252.033 80.9259 252.26 80.0726 252.26ZM89.8266 249V238.44H92.2266V243.5L96.8266 238.44H99.6666L95.5666 242.88L100.007 249H97.1466L93.9466 244.64L92.2266 246.46V249H89.8266ZM106.702 249.24C105.102 249.24 103.769 248.707 102.702 247.64C101.635 246.573 101.102 245.273 101.102 243.74C101.102 242.207 101.642 240.907 102.722 239.84C103.802 238.76 105.142 238.22 106.742 238.22C108.342 238.22 109.675 238.753 110.742 239.82C111.822 240.887 112.362 242.193 112.362 243.74C112.362 245.26 111.822 246.56 110.742 247.64C109.662 248.707 108.315 249.24 106.702 249.24ZM106.742 247.14C107.702 247.14 108.475 246.813 109.062 246.16C109.649 245.507 109.942 244.7 109.942 243.74C109.942 242.793 109.635 241.993 109.022 241.34C108.409 240.673 107.635 240.34 106.702 240.34C105.755 240.34 104.989 240.667 104.402 241.32C103.815 241.973 103.522 242.78 103.522 243.74C103.522 244.673 103.829 245.473 104.442 246.14C105.055 246.807 105.822 247.14 106.742 247.14ZM114.827 249V238.44H120.247C121.3 238.44 122.14 238.68 122.767 239.16C123.407 239.627 123.727 240.267 123.727 241.08C123.727 242.187 123.16 242.993 122.027 243.5C123.48 243.913 124.207 244.793 124.207 246.14C124.207 247.033 123.853 247.733 123.147 248.24C122.453 248.747 121.507 249 120.307 249H114.827ZM117.207 247.08H119.947C120.52 247.08 120.96 246.96 121.267 246.72C121.587 246.467 121.747 246.133 121.747 245.72C121.747 245.32 121.58 245.007 121.247 244.78C120.927 244.553 120.453 244.44 119.827 244.44H117.207V247.08ZM117.207 242.8H119.687C120.18 242.8 120.567 242.68 120.847 242.44C121.127 242.2 121.267 241.887 121.267 241.5C121.267 241.14 121.14 240.853 120.887 240.64C120.633 240.413 120.247 240.3 119.727 240.3H117.207V242.8ZM135.484 249H133.084V247.7C132.23 248.713 131.09 249.22 129.664 249.22C128.61 249.22 127.717 248.933 126.984 248.36C126.264 247.773 125.904 246.96 125.904 245.92C125.904 244.787 126.297 243.927 127.084 243.34C127.87 242.753 128.904 242.46 130.184 242.46C131.21 242.46 132.184 242.607 133.104 242.9V242.7C133.104 241.967 132.877 241.407 132.424 241.02C131.984 240.633 131.344 240.44 130.504 240.44C129.544 240.44 128.537 240.66 127.484 241.1L126.824 239.16C128.13 238.573 129.47 238.28 130.844 238.28C132.377 238.28 133.53 238.667 134.304 239.44C135.09 240.213 135.484 241.313 135.484 242.74V249ZM133.144 245.18V244.58C132.424 244.3 131.617 244.16 130.724 244.16C129.964 244.16 129.37 244.307 128.944 244.6C128.517 244.893 128.304 245.307 128.304 245.84C128.304 246.32 128.497 246.7 128.884 246.98C129.27 247.26 129.757 247.4 130.344 247.4C131.157 247.4 131.824 247.193 132.344 246.78C132.877 246.367 133.144 245.833 133.144 245.18ZM138.362 249V238.44H140.782V242.72H145.442V238.44H147.862V249H145.442V244.74H140.782V249H138.362ZM150.901 249V238.44H153.261V245.52C155.474 242.373 157.141 240.013 158.261 238.44H160.541V249H158.201V241.96L153.181 249H150.901ZM170.497 236.48C169.95 236.973 169.257 237.22 168.417 237.22C167.577 237.22 166.877 236.973 166.317 236.48C165.757 235.973 165.41 235.293 165.277 234.44L166.757 234.16C167.037 235.067 167.59 235.52 168.417 235.52C169.243 235.52 169.797 235.067 170.077 234.16L171.537 234.44C171.403 235.293 171.057 235.973 170.497 236.48ZM163.577 249V238.44H165.937V245.52C168.15 242.373 169.817 240.013 170.937 238.44H173.217V249H170.877V241.96L165.857 249H163.577Z" fill="black"/>
</svg>
