<svg width="199" height="263" viewBox="0 0 199 263" fill="none" xmlns="http://www.w3.org/2000/svg">
<rect x="1" width="197" height="197" rx="98.5" fill="#ECF7FF"/>
<path d="M2.55 259V245H8.07C9.69667 245 10.99 245.427 11.95 246.28C12.91 247.133 13.39 248.28 13.39 249.72C13.39 251.227 12.8567 252.4 11.79 253.24C10.7367 254.08 9.40333 254.5 7.79 254.5H5.01V259H2.55ZM5.01 252.28H7.87C8.79 252.28 9.52333 252.047 10.07 251.58C10.6167 251.113 10.89 250.5 10.89 249.74C10.89 248.94 10.6167 248.327 10.07 247.9C9.53667 247.46 8.80333 247.24 7.87 247.24H5.01V252.28ZM20.6494 259.24C19.0494 259.24 17.716 258.707 16.6494 257.64C15.5827 256.573 15.0494 255.273 15.0494 253.74C15.0494 252.207 15.5894 250.907 16.6694 249.84C17.7494 248.76 19.0894 248.22 20.6894 248.22C22.2894 248.22 23.6227 248.753 24.6894 249.82C25.7694 250.887 26.3094 252.193 26.3094 253.74C26.3094 255.26 25.7694 256.56 24.6894 257.64C23.6094 258.707 22.2627 259.24 20.6494 259.24ZM20.6894 257.14C21.6494 257.14 22.4227 256.813 23.0094 256.16C23.596 255.507 23.8894 254.7 23.8894 253.74C23.8894 252.793 23.5827 251.993 22.9694 251.34C22.356 250.673 21.5827 250.34 20.6494 250.34C19.7027 250.34 18.936 250.667 18.3494 251.32C17.7627 251.973 17.4694 252.78 17.4694 253.74C17.4694 254.673 17.776 255.473 18.3894 256.14C19.0027 256.807 19.7694 257.14 20.6894 257.14ZM28.7739 259V248.44H31.1739L34.4739 253.34L37.7939 248.44H40.1939V259H37.7539V251.96L34.4339 256.7L31.1339 252V259H28.7739ZM52.087 259H49.687V257.7C48.8337 258.713 47.6937 259.22 46.267 259.22C45.2137 259.22 44.3204 258.933 43.587 258.36C42.867 257.773 42.507 256.96 42.507 255.92C42.507 254.787 42.9004 253.927 43.687 253.34C44.4737 252.753 45.507 252.46 46.787 252.46C47.8137 252.46 48.787 252.607 49.707 252.9V252.7C49.707 251.967 49.4804 251.407 49.027 251.02C48.587 250.633 47.947 250.44 47.107 250.44C46.147 250.44 45.1404 250.66 44.087 251.1L43.427 249.16C44.7337 248.573 46.0737 248.28 47.447 248.28C48.9804 248.28 50.1337 248.667 50.907 249.44C51.6937 250.213 52.087 251.313 52.087 252.74V259ZM49.747 255.18V254.58C49.027 254.3 48.2204 254.16 47.327 254.16C46.567 254.16 45.9737 254.307 45.547 254.6C45.1204 254.893 44.907 255.307 44.907 255.84C44.907 256.32 45.1004 256.7 45.487 256.98C45.8737 257.26 46.3604 257.4 46.947 257.4C47.7604 257.4 48.427 257.193 48.947 256.78C49.4804 256.367 49.747 255.833 49.747 255.18ZM54.9653 259V248.44H57.3853V252.72H62.0453V248.44H64.4653V259H62.0453V254.74H57.3853V259H54.9653ZM69.7644 259V250.52H66.3644V248.44H75.6044V250.52H72.2044V259H69.7644ZM77.5239 259V248.44H79.8839V255.52C82.0972 252.373 83.7639 250.013 84.8839 248.44H87.1639V259H84.8239V251.96L79.8039 259H77.5239ZM96.6197 259V255.06C95.5797 255.593 94.533 255.86 93.4797 255.86C92.3997 255.86 91.5264 255.573 90.8597 255C90.2064 254.413 89.8797 253.593 89.8797 252.54V248.44H92.2997V251.96C92.2997 252.467 92.4597 252.9 92.7797 253.26C93.0997 253.62 93.5197 253.8 94.0397 253.8C94.9464 253.8 95.8064 253.567 96.6197 253.1V248.44H99.0397V259H96.6197ZM102.075 259V248.44H104.495V252.72H109.155V248.44H111.575V259H109.155V254.74H104.495V259H102.075ZM114.614 259V248.44H116.974V255.52C119.187 252.373 120.854 250.013 121.974 248.44H124.254V259H121.914V251.96L116.894 259H114.614ZM134.21 246.48C133.663 246.973 132.97 247.22 132.13 247.22C131.29 247.22 130.59 246.973 130.03 246.48C129.47 245.973 129.123 245.293 128.99 244.44L130.47 244.16C130.75 245.067 131.303 245.52 132.13 245.52C132.956 245.52 133.51 245.067 133.79 244.16L135.25 244.44C135.116 245.293 134.77 245.973 134.21 246.48ZM127.29 259V248.44H129.65V255.52C131.863 252.373 133.53 250.013 134.65 248.44H136.93V259H134.59V251.96L129.57 259H127.29ZM145.961 259V248.44H155.381V259H152.961V250.52H148.381V259H145.961ZM163.442 259.24C161.842 259.24 160.509 258.707 159.442 257.64C158.376 256.573 157.842 255.273 157.842 253.74C157.842 252.207 158.382 250.907 159.462 249.84C160.542 248.76 161.882 248.22 163.482 248.22C165.082 248.22 166.416 248.753 167.482 249.82C168.562 250.887 169.102 252.193 169.102 253.74C169.102 255.26 168.562 256.56 167.482 257.64C166.402 258.707 165.056 259.24 163.442 259.24ZM163.482 257.14C164.442 257.14 165.216 256.813 165.802 256.16C166.389 255.507 166.682 254.7 166.682 253.74C166.682 252.793 166.376 251.993 165.762 251.34C165.149 250.673 164.376 250.34 163.442 250.34C162.496 250.34 161.729 250.667 161.142 251.32C160.556 251.973 160.262 252.78 160.262 253.74C160.262 254.673 160.569 255.473 161.182 256.14C161.796 256.807 162.562 257.14 163.482 257.14ZM171.487 259.12C171.1 259.12 170.627 259.073 170.067 258.98L170.247 257C170.46 257.053 170.694 257.08 170.947 257.08C171.227 257.08 171.454 257.04 171.627 256.96C171.814 256.88 172 256.68 172.187 256.36C172.387 256.027 172.54 255.56 172.647 254.96C172.754 254.36 172.84 253.52 172.907 252.44C172.974 251.347 173.007 250.013 173.007 248.44H180.987V259H178.567V250.52H175.267C175.267 252.027 175.207 253.307 175.087 254.36C174.967 255.413 174.807 256.247 174.607 256.86C174.42 257.473 174.154 257.953 173.807 258.3C173.474 258.633 173.134 258.853 172.787 258.96C172.44 259.067 172.007 259.12 171.487 259.12ZM184.068 246.82V244.52H186.668V246.82H184.068ZM184.168 259V248.44H186.588V259H184.168ZM192.01 259V250.52H188.61V248.44H197.85V250.52H194.45V259H192.01Z" fill="black"/>
<path fill-rule="evenodd" clip-rule="evenodd" d="M119.457 36C119.903 36 120.321 36.119 120.686 36.3259C121.469 36.7738 122 37.6334 122 38.6213C122 38.9038 121.955 39.1755 121.874 39.4294C121.437 41.4508 117.501 44 117.501 44C117.501 44 113.562 41.4507 113.126 39.4294C113.045 39.1755 113 38.9042 113 38.6213C113 37.6331 113.531 36.7732 114.314 36.3259C114.68 36.119 115.097 36 115.542 36C116.329 36 117.033 36.3695 117.501 36.9489C117.966 36.3695 118.671 36 119.457 36ZM104.502 46C105.641 46 106.71 46.2975 107.641 46.8147C109.643 47.9345 111 50.0836 111 52.5532C111 53.2596 110.885 53.9388 110.678 54.5734C109.561 59.6269 99.502 66 99.502 66C99.502 66 89.4359 59.6268 88.3209 54.5734C88.1141 53.9388 88 53.2605 88 52.5532C88 50.0827 89.3567 47.9329 91.3591 46.8147C92.2925 46.2975 93.3586 46 94.4954 46C96.5086 46 98.3074 46.9238 99.502 48.3723C100.691 46.9238 102.491 46 104.502 46ZM72.5 75C76.0899 75 79 72.0899 79 68.5C79 64.9101 76.0899 62 72.5 62C68.9101 62 66 64.9101 66 68.5C66 72.0899 68.9101 75 72.5 75ZM80.5385 78H63.5782C59.4842 78 56.1373 81.318 56.1167 85.396L56 108.473C55.9913 110.207 57.3959 111.621 59.137 111.629H59.1534C60.8875 111.629 62.2971 110.233 62.3061 108.504L62.4226 85.4278V85.42C62.4266 85.0774 62.7077 84.8022 63.0516 84.8042C63.3955 84.8062 63.6732 85.0847 63.6732 85.4273L63.6746 138.231C63.6746 140.312 65.3687 142 67.4583 142C69.548 142 71.242 140.312 71.242 138.231V108.102H72.8757V138.231C72.8757 140.312 74.5696 142 76.6593 142C78.7489 142 80.4428 140.312 80.4428 138.231C80.4428 110.407 80.4219 107.006 80.4032 103.955V103.955C80.3884 101.543 80.3749 99.3497 80.3742 85.4733C80.3742 85.1197 80.6543 84.8294 81.0091 84.8155C81.3638 84.8017 81.6664 85.0691 81.6938 85.4215V85.4218L81.6724 108.485C81.6707 110.22 83.0811 111.628 84.8224 111.629H84.8254C86.5652 111.629 87.9768 110.225 87.9783 108.491L87.9997 85.415L88 85.4085C88 85.4044 88 85.4003 87.9999 85.396C87.9793 81.318 84.6322 78 80.5385 78ZM135.15 84.3909C136.049 87.0256 141.766 103.438 141.823 103.603C142.394 105.24 141.537 107.033 139.911 107.606C138.287 108.18 136.505 107.32 135.934 105.682C135.752 105.16 132.414 95.5759 130.48 89.9988C130.496 90.1248 130.505 90.2136 130.513 90.2916L130.523 90.3838C130.577 90.881 130.672 91.3738 132.334 99.9973L132.339 100.022C132.955 103.219 133.786 107.53 134.91 113.367C135.117 114.446 134.296 115.446 133.208 115.446H130.827V138.231C130.827 140.312 129.15 142 127.082 142C125.014 142 123.337 140.312 123.337 138.231V115.446H121.72V138.231C121.72 140.312 120.044 142 117.976 142C115.908 142 114.231 140.312 114.231 138.231V115.446H111.85C110.767 115.446 109.94 114.447 110.148 113.367C112.211 102.645 113.29 97.1185 113.863 94.178L113.863 94.178L113.863 94.1776L113.863 94.1772C114.432 91.2601 114.505 90.8888 114.55 90.5143C114.556 90.4597 114.562 90.405 114.569 90.3423C114.579 90.2523 114.591 90.1457 114.609 89.9991C113.11 94.3218 110.684 101.136 109.605 104.165C109.303 105.014 109.107 105.566 109.066 105.682C108.497 107.317 106.717 108.181 105.089 107.607C103.463 107.033 102.606 105.24 103.177 103.603C103.234 103.438 108.951 87.0254 109.85 84.3909C111.298 80.1503 113.725 78 117.065 78H127.935C131.274 78 133.702 80.1502 135.15 84.3909ZM122.5 75C126.09 75 129 72.0899 129 68.5C129 64.9101 126.09 62 122.5 62C118.91 62 116 64.9101 116 68.5C116 72.0899 118.91 75 122.5 75ZM81.9776 46.2444C81.6942 46.0892 81.3691 46 81.0223 46C80.4104 46 79.8624 46.2771 79.5006 46.7117C79.1371 46.2771 78.5896 46 77.9768 46C77.6309 46 77.3064 46.0892 77.0224 46.2444C76.4129 46.5799 76 47.2248 76 47.966C76 48.1782 76.0347 48.3817 76.0977 48.572C76.437 50.088 79.5006 52 79.5006 52C79.5006 52 82.5622 50.0881 82.902 48.572C82.9649 48.3817 83 48.1779 83 47.966C83 47.2251 82.5871 46.5803 81.9776 46.2444Z" fill="#248DFF"/>
</svg>
