<svg width="197" height="263" viewBox="0 0 197 263" fill="none" xmlns="http://www.w3.org/2000/svg">
<rect width="197" height="197" rx="98.5" fill="#49B8FF" fill-opacity="0.1"/>
<path fill-rule="evenodd" clip-rule="evenodd" d="M106 68.5C106 72.0899 103.09 75 99.5 75C95.9101 75 93 72.0899 93 68.5C93 64.9101 95.9101 62 99.5 62C103.09 62 106 64.9101 106 68.5ZM90.5782 78H107.539C111.632 78 114.979 81.318 115 85.396C115 85.4025 115 85.4085 115 85.415L114.978 108.491C114.977 110.225 113.565 111.629 111.825 111.629H111.822C110.081 111.628 108.671 110.22 108.672 108.485L108.694 85.4218V85.4215C108.666 85.0691 108.364 84.8017 108.009 84.8155C107.654 84.8294 107.374 85.1197 107.374 85.4733C107.375 99.3497 107.388 101.543 107.403 103.955C107.422 107.006 107.443 110.406 107.443 138.231C107.443 140.312 105.749 142 103.659 142C101.57 142 99.8757 140.312 99.8757 138.231V108.102H98.242V138.231C98.242 140.312 96.548 142 94.4583 142C92.3687 142 90.6746 140.312 90.6746 138.231L90.6732 85.4273C90.6732 85.0847 90.3955 84.8062 90.0516 84.8042C89.7077 84.8022 89.4266 85.0774 89.4226 85.42V85.4278L89.3061 108.504C89.2971 110.233 87.8875 111.629 86.1534 111.629H86.137C84.3959 111.621 82.9913 110.207 83 108.473L83.1167 85.396C83.1373 81.318 86.4842 78 90.5782 78Z" fill="#248DFF"/>
<path d="M39.2781 262V256.8H40.6381C41.8248 254.453 42.4181 251.18 42.4181 246.98V245H52.1781V256.8H53.9181L53.5781 262H51.5381V259H41.6781L41.4381 262H39.2781ZM43.2581 256.8H49.7181V247.22H44.7781V248.82C44.7781 252.087 44.2715 254.747 43.2581 256.8ZM55.7525 259.12C55.3658 259.12 54.8925 259.073 54.3325 258.98L54.5125 257C54.7258 257.053 54.9592 257.08 55.2125 257.08C55.4925 257.08 55.7192 257.04 55.8925 256.96C56.0792 256.88 56.2658 256.68 56.4525 256.36C56.6525 256.027 56.8058 255.56 56.9125 254.96C57.0192 254.36 57.1058 253.52 57.1725 252.44C57.2392 251.347 57.2725 250.013 57.2725 248.44H65.2525V259H62.8325V250.52H59.5325C59.5325 252.027 59.4725 253.307 59.3525 254.36C59.2325 255.413 59.0725 256.247 58.8725 256.86C58.6858 257.473 58.4192 257.953 58.0725 258.3C57.7392 258.633 57.3992 258.853 57.0525 258.96C56.7058 259.067 56.2725 259.12 55.7525 259.12ZM67.3334 259L70.2534 255.04C69.5068 254.813 68.9068 254.433 68.4534 253.9C68.0134 253.353 67.7934 252.68 67.7934 251.88C67.7934 250.84 68.1601 250.007 68.8934 249.38C69.6268 248.753 70.6468 248.44 71.9534 248.44H77.2534V259H74.8334V255.44H72.6734L70.1734 259H67.3334ZM72.2934 253.62H74.8334V250.4H72.2734C71.6334 250.4 71.1268 250.547 70.7534 250.84C70.3934 251.12 70.2134 251.507 70.2134 252C70.2134 252.507 70.4001 252.907 70.7734 253.2C71.1601 253.48 71.6668 253.62 72.2934 253.62ZM91.3017 259.24C89.7017 259.24 88.3684 258.707 87.3017 257.64C86.2351 256.573 85.7017 255.273 85.7017 253.74C85.7017 252.207 86.2417 250.907 87.3217 249.84C88.4017 248.76 89.7417 248.22 91.3417 248.22C92.9417 248.22 94.2751 248.753 95.3417 249.82C96.4217 250.887 96.9617 252.193 96.9617 253.74C96.9617 255.26 96.4217 256.56 95.3417 257.64C94.2617 258.707 92.9151 259.24 91.3017 259.24ZM91.3417 257.14C92.3017 257.14 93.0751 256.813 93.6617 256.16C94.2484 255.507 94.5417 254.7 94.5417 253.74C94.5417 252.793 94.2351 251.993 93.6217 251.34C93.0084 250.673 92.2351 250.34 91.3017 250.34C90.3551 250.34 89.5884 250.667 89.0017 251.32C88.4151 251.973 88.1217 252.78 88.1217 253.74C88.1217 254.673 88.4284 255.473 89.0417 256.14C89.6551 256.807 90.4217 257.14 91.3417 257.14ZM98.2063 261.54V256.92H99.3463C100.133 255.347 100.526 252.953 100.526 249.74V248.44H108.706V256.92H110.206L109.886 261.54H107.866V259H100.466L100.226 261.54H98.2063ZM101.826 256.92H106.286V250.52H102.806V251.92C102.806 253.88 102.48 255.547 101.826 256.92ZM112.219 259V248.44H114.639V252.72H119.299V248.44H121.719V259H119.299V254.74H114.639V259H112.219ZM129.778 259.24C128.178 259.24 126.845 258.707 125.778 257.64C124.712 256.573 124.178 255.273 124.178 253.74C124.178 252.207 124.718 250.907 125.798 249.84C126.878 248.76 128.218 248.22 129.818 248.22C131.418 248.22 132.752 248.753 133.818 249.82C134.898 250.887 135.438 252.193 135.438 253.74C135.438 255.26 134.898 256.56 133.818 257.64C132.738 258.707 131.392 259.24 129.778 259.24ZM129.818 257.14C130.778 257.14 131.552 256.813 132.138 256.16C132.725 255.507 133.018 254.7 133.018 253.74C133.018 252.793 132.712 251.993 132.098 251.34C131.485 250.673 130.712 250.34 129.778 250.34C128.832 250.34 128.065 250.667 127.478 251.32C126.892 251.973 126.598 252.78 126.598 253.74C126.598 254.673 126.905 255.473 127.518 256.14C128.132 256.807 128.898 257.14 129.818 257.14ZM137.903 259V248.44H145.383V250.52H140.323V259H137.903ZM152.317 259.24C150.717 259.24 149.384 258.707 148.317 257.64C147.251 256.573 146.717 255.273 146.717 253.74C146.717 252.207 147.257 250.907 148.337 249.84C149.417 248.76 150.757 248.22 152.357 248.22C153.957 248.22 155.291 248.753 156.357 249.82C157.437 250.887 157.977 252.193 157.977 253.74C157.977 255.26 157.437 256.56 156.357 257.64C155.277 258.707 153.931 259.24 152.317 259.24ZM152.357 257.14C153.317 257.14 154.091 256.813 154.677 256.16C155.264 255.507 155.557 254.7 155.557 253.74C155.557 252.793 155.251 251.993 154.637 251.34C154.024 250.673 153.251 250.34 152.317 250.34C151.371 250.34 150.604 250.667 150.017 251.32C149.431 251.973 149.137 252.78 149.137 253.74C149.137 254.673 149.444 255.473 150.057 256.14C150.671 256.807 151.437 257.14 152.357 257.14Z" fill="black"/>
</svg>
